<svg width="15" height="16" viewBox="0 0 15 16" fill="none" xmlns="http://www.w3.org/2000/svg">
<g id="arrow_circle_right">
<mask id="mask0_125_2863" style="mask-type:alpha" maskUnits="userSpaceOnUse" x="0" y="0" width="15" height="16">
<rect id="Bounding box" y="0.5" width="15" height="15" fill="#D9D9D9"/>
</mask>
<g mask="url(#mask0_125_2863)">
<path id="arrow_circle_right_2" d="M7.5 10.5L10 8L7.5 5.5L6.625 6.375L7.625 7.375H5V8.625H7.625L6.625 9.625L7.5 10.5ZM7.5 14.25C6.63542 14.25 5.82292 14.0858 5.0625 13.7575C4.30208 13.4296 3.64062 12.9844 3.07813 12.4219C2.51563 11.8594 2.07042 11.1979 1.7425 10.4375C1.41417 9.67708 1.25 8.86458 1.25 8C1.25 7.13542 1.41417 6.32292 1.7425 5.5625C2.07042 4.80208 2.51563 4.14062 3.07813 3.57813C3.64062 3.01563 4.30208 2.57021 5.0625 2.24187C5.82292 1.91396 6.63542 1.75 7.5 1.75C8.36458 1.75 9.17708 1.91396 9.9375 2.24187C10.6979 2.57021 11.3594 3.01563 11.9219 3.57813C12.4844 4.14062 12.9296 4.80208 13.2575 5.5625C13.5858 6.32292 13.75 7.13542 13.75 8C13.75 8.86458 13.5858 9.67708 13.2575 10.4375C12.9296 11.1979 12.4844 11.8594 11.9219 12.4219C11.3594 12.9844 10.6979 13.4296 9.9375 13.7575C9.17708 14.0858 8.36458 14.25 7.5 14.25ZM7.5 13C8.89583 13 10.0781 12.5156 11.0469 11.5469C12.0156 10.5781 12.5 9.39583 12.5 8C12.5 6.60417 12.0156 5.42187 11.0469 4.45312C10.0781 3.48437 8.89583 3 7.5 3C6.10417 3 4.92187 3.48437 3.95312 4.45312C2.98437 5.42187 2.5 6.60417 2.5 8C2.5 9.39583 2.98437 10.5781 3.95312 11.5469C4.92187 12.5156 6.10417 13 7.5 13Z" fill="#1C1B1F"/>
</g>
</g>
</svg>
