<svg width="18" height="18" viewBox="0 0 18 18" fill="none" xmlns="http://www.w3.org/2000/svg">
<g id="arrow_circle_right" opacity="0.4">
<mask id="mask0_125_2877" style="mask-type:alpha" maskUnits="userSpaceOnUse" x="0" y="0" width="18" height="18">
<rect id="Bounding box" x="18" width="18" height="18" transform="rotate(90 18 0)" fill="#D9D9D9"/>
</mask>
<g mask="url(#mask0_125_2877)">
<path id="arrow_circle_right_2" d="M6.00025 9.00049L9.00024 12.0005L12.0002 9.00049L10.9502 7.95049L9.75024 9.15049V6.00049L8.25025 6.00049V9.15049L7.05024 7.95049L6.00025 9.00049ZM1.50025 9.00049C1.50025 7.96299 1.69725 6.98799 2.09125 6.07549C2.48475 5.16299 3.01899 4.36924 3.69399 3.69424C4.36899 3.01924 5.16275 2.48499 6.07524 2.09149C6.98775 1.69749 7.96274 1.50049 9.00024 1.50049C10.0377 1.50049 11.0127 1.69749 11.9252 2.09149C12.8377 2.48499 13.6315 3.01924 14.3065 3.69424C14.9815 4.36924 15.516 5.16299 15.91 6.07549C16.3035 6.98799 16.5002 7.96299 16.5002 9.00049C16.5002 10.038 16.3035 11.013 15.91 11.9255C15.516 12.838 14.9815 13.6317 14.3065 14.3067C13.6315 14.9817 12.8377 15.516 11.9252 15.9095C11.0127 16.3035 10.0377 16.5005 9.00024 16.5005C7.96274 16.5005 6.98775 16.3035 6.07524 15.9095C5.16275 15.516 4.36899 14.9817 3.69399 14.3067C3.01899 13.6317 2.48475 12.838 2.09125 11.9255C1.69725 11.013 1.50025 10.038 1.50025 9.00049ZM3.00025 9.00049C3.00025 10.6755 3.5815 12.0942 4.744 13.2567C5.9065 14.4192 7.32524 15.0005 9.00024 15.0005C10.6752 15.0005 12.094 14.4192 13.2565 13.2567C14.419 12.0942 15.0002 10.6755 15.0002 9.00049C15.0002 7.32549 14.419 5.90674 13.2565 4.74424C12.094 3.58174 10.6752 3.00049 9.00024 3.00049C7.32524 3.00049 5.9065 3.58174 4.744 4.74424C3.5815 5.90674 3.00025 7.32549 3.00025 9.00049Z" fill="#1C1B1F"/>
</g>
</g>
</svg>
