<svg width="32" height="32" viewBox="0 0 32 32" fill="none" xmlns="http://www.w3.org/2000/svg">
<g id="Group 154">
<g id="Group 138">
<g id="Rectangle 35">
<rect width="32" height="32" rx="16" fill="url(#paint0_linear_127_1850)"/>
<rect width="32" height="32" rx="16" fill="url(#paint1_linear_127_1850)"/>
</g>
<g id="Mask group">
<mask id="mask0_127_1850" style="mask-type:alpha" maskUnits="userSpaceOnUse" x="0" y="0" width="32" height="32">
<rect id="Rectangle 36" width="32" height="32" rx="16" fill="white"/>
</mask>
<g mask="url(#mask0_127_1850)">
<path id="Union" opacity="0.19" fill-rule="evenodd" clip-rule="evenodd" d="M3.85903 3.59586L2.24173 0.967753C2.15188 0.821747 2.04599 0.717457 1.92405 0.654883C1.80211 0.592309 1.67696 0.58188 1.5486 0.623596L1.04801 0.795675C1.39458 1.46313 1.66733 2.06801 1.86629 2.61032C2.06524 3.15263 2.25777 3.80965 2.44389 4.5814L3.85903 3.59586ZM1.88554 5.01942C1.73793 4.26853 1.53744 3.55936 1.28406 2.8919C1.03043 2.22445 0.723911 1.59871 0.364512 1.01468C-0.200257 0.0969324 -0.84525 -0.588878 -1.57047 -1.04275C-2.29568 -1.4962 -2.97276 -1.63428 -3.60171 -1.45699C-3.71082 -0.434946 -3.62738 0.665313 -3.35142 1.84379C-3.07545 3.02226 -2.65508 4.07038 -2.09031 4.98813C-1.73733 5.56172 -1.35226 6.05981 -0.9351 6.48239C-0.517941 6.90456 -0.0783186 7.23558 0.383766 7.47544L1.88554 5.01942ZM-0.771445 3.1422C-0.919055 3.38206 -1.10042 3.502 -1.31555 3.502C-1.53042 3.502 -1.71166 3.38206 -1.85927 3.1422C-2.00688 2.90233 -2.08068 2.60761 -2.08068 2.25803C-2.08068 1.90887 -2.00688 1.61435 -1.85927 1.37448C-1.71166 1.13462 -1.53042 1.01468 -1.31555 1.01468C-1.10042 1.01468 -0.919055 1.13462 -0.771445 1.37448C-0.623835 1.61435 -0.55003 1.90887 -0.55003 2.25803C-0.55003 2.60761 -0.623835 2.90233 -0.771445 3.1422ZM-0.501896 10.6667L0.114217 8.36712C-0.360703 8.06468 -0.766696 7.75181 -1.10376 7.42851C-1.44057 7.10521 -1.81434 6.66198 -2.22509 6.09882L-2.32135 6.91228C-2.34702 7.12086 -2.34061 7.32693 -2.3021 7.53051C-2.26359 7.73366 -2.19941 7.90825 -2.10956 8.05425L-0.501896 10.6667ZM3.24291 7.02178C3.01829 6.65677 2.74553 6.47155 2.42464 6.46612C2.10375 6.46112 1.83099 6.64112 1.60636 7.00614C1.38174 7.37115 1.26943 7.81438 1.26943 8.33583C1.26943 8.85728 1.38174 9.30052 1.60636 9.66553C1.76681 9.92625 2.03469 10.1505 2.41001 10.3382C2.78558 10.5259 3.30388 10.6928 3.96492 10.8388C3.87507 9.7646 3.77238 8.92507 3.65686 8.32019C3.54134 7.71531 3.40336 7.28251 3.24291 7.02178ZM11.5527 3.59586L13.17 0.967753C13.2598 0.821747 13.3657 0.717457 13.4876 0.654883C13.6096 0.592309 13.7347 0.58188 13.8631 0.623596L14.3637 0.795675C14.0171 1.46313 13.7444 2.06801 13.5454 2.61032C13.3465 3.15263 13.1539 3.80965 12.9678 4.5814L11.5527 3.59586ZM13.5262 5.01942C13.6738 4.26853 13.8743 3.55936 14.1276 2.8919C14.3813 2.22445 14.6878 1.59871 15.0472 1.01468C15.612 0.0969324 16.2569 -0.588878 16.9822 -1.04275C17.7074 -1.4962 18.3845 -1.63428 19.0134 -1.45699C19.1225 -0.434946 19.0391 0.665313 18.7631 1.84379C18.4871 3.02226 18.0668 4.07038 17.502 4.98813C17.149 5.56172 16.764 6.05981 16.3468 6.48239C15.9296 6.90456 15.49 7.23558 15.0279 7.47544L13.5262 5.01942ZM16.1831 3.1422C16.3307 3.38206 16.5121 3.502 16.7272 3.502C16.9421 3.502 17.1234 3.38206 17.271 3.1422C17.4186 2.90233 17.4924 2.60761 17.4924 2.25803C17.4924 1.90887 17.4186 1.61435 17.271 1.37448C17.1234 1.13462 16.9421 1.01468 16.7272 1.01468C16.5121 1.01468 16.3307 1.13462 16.1831 1.37448C16.0355 1.61435 15.9617 1.90887 15.9617 2.25803C15.9617 2.60761 16.0355 2.90233 16.1831 3.1422ZM15.9136 10.6667L15.2975 8.36712C15.7724 8.06468 16.1784 7.75181 16.5155 7.42851C16.8523 7.10521 17.226 6.66198 17.6368 6.09882L17.733 6.91228C17.7587 7.12086 17.7523 7.32693 17.7138 7.53051C17.6753 7.73366 17.6111 7.90825 17.5213 8.05425L15.9136 10.6667ZM12.1688 7.02178C12.3934 6.65677 12.6662 6.47155 12.9871 6.46612C13.3079 6.46112 13.5807 6.64112 13.8053 7.00614C14.03 7.37115 14.1423 7.81438 14.1423 8.33583C14.1423 8.85728 14.03 9.30052 13.8053 9.66553C13.6449 9.92625 13.377 10.1505 13.0017 10.3382C12.6261 10.5259 12.1078 10.6928 11.4468 10.8388C11.5366 9.7646 11.6393 8.92507 11.7548 8.32019C11.8704 7.71531 12.0083 7.28251 12.1688 7.02178ZM32.4312 0.967753L34.0485 3.59586L32.6334 4.5814C32.4473 3.80965 32.2548 3.15263 32.0558 2.61032C31.8568 2.06801 31.5841 1.46313 31.2375 0.795675L31.7381 0.623596C31.8665 0.58188 31.9916 0.592309 32.1136 0.654883C32.2355 0.717457 32.3414 0.821747 32.4312 0.967753ZM31.4736 2.8919C31.727 3.55936 31.9274 4.26853 32.0751 5.01942L30.5733 7.47544C30.1112 7.23558 29.6716 6.90456 29.2544 6.48239C28.8373 6.05981 28.4522 5.56172 28.0992 4.98813C27.5344 4.07038 27.1141 3.02226 26.8381 1.84379C26.5621 0.665313 26.4787 -0.434946 26.5878 -1.45699C27.2167 -1.63428 27.8938 -1.4962 28.619 -1.04275C29.3443 -0.588878 29.9893 0.0969324 30.554 1.01468C30.9134 1.59871 31.2199 2.22445 31.4736 2.8919ZM28.874 3.502C29.0891 3.502 29.2705 3.38206 29.4181 3.1422C29.5657 2.90233 29.6395 2.60761 29.6395 2.25803C29.6395 1.90887 29.5657 1.61435 29.4181 1.37448C29.2705 1.13462 29.0891 1.01468 28.874 1.01468C28.6591 1.01468 28.4779 1.13462 28.3302 1.37448C28.1826 1.61435 28.1088 1.90887 28.1088 2.25803C28.1088 2.60761 28.1826 2.90233 28.3302 3.1422C28.4779 3.38206 28.6591 3.502 28.874 3.502ZM30.3037 8.36712L29.6876 10.6667L28.0799 8.05425C27.9901 7.90825 27.9259 7.73366 27.8874 7.53051C27.8489 7.32693 27.8425 7.12086 27.8682 6.91228L27.9644 6.09882C28.3752 6.66198 28.7489 7.10521 29.0858 7.42851C29.4228 7.75181 29.8288 8.06468 30.3037 8.36712ZM32.6142 6.46612C32.935 6.47155 33.2078 6.65677 33.4324 7.02178C33.5929 7.28251 33.7309 7.71531 33.8464 8.32019C33.9619 8.92507 34.0646 9.7646 34.1544 10.8388C33.4934 10.6928 32.9751 10.5259 32.5995 10.3382C32.2242 10.1505 31.9563 9.92625 31.7959 9.66553C31.5713 9.30052 31.4589 8.85728 31.4589 8.33583C31.4589 7.81438 31.5713 7.37115 31.7959 7.00614C32.0205 6.64112 32.2933 6.46112 32.6142 6.46612ZM41.7422 3.59586L43.3595 0.967753C43.4493 0.821747 43.5552 0.717457 43.6772 0.654883C43.7991 0.592309 43.9243 0.58188 44.0526 0.623596L44.5532 0.795675C44.2066 1.46313 43.9339 2.06801 43.7349 2.61032C43.536 3.15263 43.3434 3.80965 43.1573 4.5814L41.7422 3.59586ZM43.7157 5.01942C43.8633 4.26853 44.0638 3.55936 44.3172 2.8919C44.5708 2.22445 44.8773 1.59871 45.2367 1.01468C45.8015 0.0969324 46.4465 -0.588878 47.1717 -1.04275C47.8969 -1.4962 48.574 -1.63428 49.2029 -1.45699C49.312 -0.434946 49.2286 0.665313 48.9526 1.84379C48.6767 3.02226 48.2563 4.07038 47.6915 4.98813C47.3385 5.56172 46.9535 6.05981 46.5363 6.48239C46.1192 6.90456 45.6795 7.23558 45.2174 7.47544L43.7157 5.01942ZM46.3727 3.1422C46.5203 3.38206 46.7016 3.502 46.9168 3.502C47.1316 3.502 47.3129 3.38206 47.4605 3.1422C47.6081 2.90233 47.6819 2.60761 47.6819 2.25803C47.6819 1.90887 47.6081 1.61435 47.4605 1.37448C47.3129 1.13462 47.1316 1.01468 46.9168 1.01468C46.7016 1.01468 46.5203 1.13462 46.3727 1.37448C46.225 1.61435 46.1512 1.90887 46.1512 2.25803C46.1512 2.60761 46.225 2.90233 46.3727 3.1422ZM46.1031 10.6667L45.487 8.36712C45.9619 8.06468 46.3679 7.75181 46.705 7.42851C47.0418 7.10521 47.4156 6.66198 47.8263 6.09882L47.9226 6.91228C47.9482 7.12086 47.9418 7.32693 47.9033 7.53051C47.8648 7.73366 47.8006 7.90825 47.7108 8.05425L46.1031 10.6667ZM42.3583 7.02178C42.5829 6.65677 42.8557 6.47155 43.1766 6.46612C43.4975 6.46112 43.7702 6.64112 43.9948 7.00614C44.2195 7.37115 44.3318 7.81438 44.3318 8.33583C44.3318 8.85728 44.2195 9.30052 43.9948 9.66553C43.8344 9.92625 43.5665 10.1505 43.1912 10.3382C42.8156 10.5259 42.2973 10.6928 41.6363 10.8388C41.7261 9.7646 41.8288 8.92507 41.9443 8.32019C42.0599 7.71531 42.1979 7.28251 42.3583 7.02178ZM62.621 0.967753L64.2383 3.59586L62.8232 4.5814C62.6371 3.80965 62.4445 3.15263 62.2456 2.61032C62.0466 2.06801 61.7739 1.46313 61.4273 0.795675L61.9279 0.623596C62.0563 0.58188 62.1814 0.592309 62.3033 0.654883C62.4253 0.717457 62.5312 0.821747 62.621 0.967753ZM61.6633 2.8919C61.9167 3.55936 62.1172 4.26853 62.2648 5.01942L60.7631 7.47544C60.301 7.23558 59.8613 6.90456 59.4442 6.48239C59.027 6.05981 58.642 5.56172 58.289 4.98813C57.7242 4.07038 57.3038 3.02226 57.0279 1.84379C56.7519 0.665313 56.6685 -0.434946 56.7776 -1.45699C57.4065 -1.63428 58.0836 -1.4962 58.8088 -1.04275C59.534 -0.588878 60.179 0.0969324 60.7438 1.01468C61.1032 1.59871 61.4097 2.22445 61.6633 2.8919ZM59.0637 3.502C59.2789 3.502 59.4602 3.38206 59.6078 3.1422C59.7554 2.90233 59.8293 2.60761 59.8293 2.25803C59.8293 1.90887 59.7554 1.61435 59.6078 1.37448C59.4602 1.13462 59.2789 1.01468 59.0637 1.01468C58.8489 1.01468 58.6676 1.13462 58.52 1.37448C58.3724 1.61435 58.2986 1.90887 58.2986 2.25803C58.2986 2.60761 58.3724 2.90233 58.52 3.1422C58.6676 3.38206 58.8489 3.502 59.0637 3.502ZM60.4935 8.36712L59.8774 10.6667L58.2697 8.05425C58.1799 7.90825 58.1157 7.73366 58.0772 7.53051C58.0387 7.32693 58.0323 7.12086 58.0579 6.91228L58.1542 6.09882C58.5649 6.66198 58.9387 7.10521 59.2755 7.42851C59.6126 7.75181 60.0186 8.06468 60.4935 8.36712ZM62.8039 6.46612C63.1248 6.47155 63.3976 6.65677 63.6222 7.02178C63.7826 7.28251 63.9206 7.71531 64.0361 8.32019C64.1517 8.92507 64.2544 9.7646 64.3442 10.8388C63.6832 10.6928 63.1649 10.5259 62.7893 10.3382C62.414 10.1505 62.1461 9.92625 61.9856 9.66553C61.761 9.30052 61.6487 8.85728 61.6487 8.33583C61.6487 7.81438 61.761 7.37115 61.9856 7.00614C62.2103 6.64112 62.483 6.46112 62.8039 6.46612ZM71.9317 3.59586L73.549 0.967753C73.6389 0.821747 73.7447 0.717457 73.8667 0.654883C73.9886 0.592309 74.1138 0.58188 74.2421 0.623596L74.7427 0.795675C74.3962 1.46313 74.1234 2.06801 73.9244 2.61032C73.7255 3.15263 73.533 3.80965 73.3468 4.5814L71.9317 3.59586ZM73.9052 5.01942C74.0528 4.26853 74.2533 3.55936 74.5067 2.8919C74.7603 2.22445 75.0668 1.59871 75.4262 1.01468C75.991 0.0969324 76.636 -0.588878 77.3612 -1.04275C78.0864 -1.4962 78.7635 -1.63428 79.3924 -1.45699C79.5015 -0.434946 79.4181 0.665313 79.1422 1.84379C78.8662 3.02226 78.4458 4.07038 77.881 4.98813C77.5281 5.56172 77.143 6.05981 76.7258 6.48239C76.3087 6.90456 75.869 7.23558 75.407 7.47544L73.9052 5.01942ZM76.5622 3.1422C76.7098 3.38206 76.8912 3.502 77.1063 3.502C77.3212 3.502 77.5024 3.38206 77.65 3.1422C77.7976 2.90233 77.8714 2.60761 77.8714 2.25803C77.8714 1.90887 77.7976 1.61435 77.65 1.37448C77.5024 1.13462 77.3212 1.01468 77.1063 1.01468C76.8912 1.01468 76.7098 1.13462 76.5622 1.37448C76.4146 1.61435 76.3408 1.90887 76.3408 2.25803C76.3408 2.60761 76.4146 2.90233 76.5622 3.1422ZM76.2926 10.6667L75.6765 8.36712C76.1514 8.06468 76.5574 7.75181 76.8945 7.42851C77.2313 7.10521 77.6051 6.66198 78.0158 6.09882L78.1121 6.91228C78.1378 7.12086 78.1313 7.32693 78.0928 7.53051C78.0543 7.73366 77.9902 7.90825 77.9003 8.05425L76.2926 10.6667ZM72.5478 7.02178C72.7724 6.65677 73.0452 6.47155 73.3661 6.46612C73.687 6.46112 73.9597 6.64112 74.1844 7.00614C74.409 7.37115 74.5213 7.81438 74.5213 8.33583C74.5213 8.85728 74.409 9.30052 74.1844 9.66553C74.0239 9.92625 73.756 10.1505 73.3807 10.3382C73.0052 10.5259 72.4868 10.6928 71.8258 10.8388C71.9157 9.7646 72.0183 8.92507 72.1339 8.32019C72.2494 7.71531 72.3874 7.28251 72.5478 7.02178ZM12.6677 21.7595L11.0504 19.1314C10.9605 18.9854 10.8546 18.8811 10.7327 18.8185C10.6107 18.756 10.4856 18.7455 10.3572 18.7873L9.85665 18.9593C10.2032 19.6268 10.476 20.2317 10.6749 20.774C10.8739 21.3163 11.0664 21.9733 11.2525 22.7451L12.6677 21.7595ZM10.6942 23.1831C10.5466 22.4322 10.3461 21.723 10.0927 21.0556C9.83907 20.3881 9.53255 19.7624 9.17315 19.1783C8.60838 18.2606 7.96339 17.5748 7.23817 17.1209C6.51296 16.6675 5.83588 16.5294 5.20693 16.7067C5.09782 17.7287 5.18126 18.829 5.45722 20.0074C5.73319 21.1859 6.15356 22.234 6.71833 23.1518C7.07131 23.7254 7.45638 24.2235 7.87354 24.6461C8.2907 25.0682 8.73032 25.3992 9.19241 25.6391L10.6942 23.1831ZM8.0372 21.3059C7.88958 21.5457 7.70822 21.6657 7.49309 21.6657C7.27822 21.6657 7.09698 21.5457 6.94937 21.3059C6.80176 21.066 6.72795 20.7713 6.72795 20.4217C6.72795 20.0725 6.80176 19.778 6.94937 19.5381C7.09698 19.2983 7.27822 19.1783 7.49309 19.1783C7.70822 19.1783 7.88958 19.2983 8.0372 19.5381C8.1848 19.778 8.25861 20.0725 8.25861 20.4217C8.25861 20.7713 8.1848 21.066 8.0372 21.3059ZM8.30674 28.8304L8.92286 26.5308C8.44794 26.2283 8.04194 25.9155 7.70488 25.5922C7.36807 25.2689 6.9943 24.8256 6.58355 24.2625L6.48729 25.0759C6.46161 25.2845 6.46803 25.4906 6.50654 25.6942C6.54505 25.8973 6.60922 26.0719 6.69908 26.2179L8.30674 28.8304ZM12.0516 25.1854C11.8269 24.8204 11.5542 24.6352 11.2333 24.6298C10.9124 24.6248 10.6396 24.8048 10.415 25.1698C10.1904 25.5348 10.0781 25.978 10.0781 26.4995C10.0781 27.0209 10.1904 27.4642 10.415 27.8292C10.5754 28.0899 10.8433 28.3141 11.2186 28.5019C11.5942 28.6896 12.1125 28.8564 12.7736 29.0024C12.6837 27.9283 12.581 27.0887 12.4655 26.4838C12.35 25.879 12.212 25.4462 12.0516 25.1854ZM-9.82831 21.7595L-8.21101 19.1314C-8.12116 18.9854 -8.01527 18.8811 -7.89333 18.8185C-7.77139 18.756 -7.64624 18.7455 -7.51789 18.7873L-7.0173 18.9593C-7.36386 19.6268 -7.63662 20.2317 -7.83557 20.774C-8.03452 21.3163 -8.22706 21.9733 -8.41318 22.7451L-9.82831 21.7595ZM-7.85482 23.1831C-7.70721 22.4322 -7.50672 21.723 -7.25334 21.0556C-6.99971 20.3881 -6.6932 19.7624 -6.3338 19.1783C-5.76903 18.2606 -5.12403 17.5748 -4.39882 17.1209C-3.6736 16.6675 -2.99652 16.5294 -2.36757 16.7067C-2.25847 17.7287 -2.3419 18.829 -2.61787 20.0074C-2.89384 21.1859 -3.3142 22.234 -3.87897 23.1518C-4.23195 23.7254 -4.61702 24.2235 -5.03418 24.6461C-5.45134 25.0682 -5.89097 25.3992 -6.35305 25.6391L-7.85482 23.1831ZM-5.19784 21.3059C-5.05023 21.5457 -4.86886 21.6657 -4.65374 21.6657C-4.43887 21.6657 -4.25763 21.5457 -4.11002 21.3059C-3.96241 21.066 -3.8886 20.7713 -3.8886 20.4217C-3.8886 20.0725 -3.96241 19.778 -4.11002 19.5381C-4.25763 19.2983 -4.43887 19.1783 -4.65374 19.1783C-4.86886 19.1783 -5.05023 19.2983 -5.19784 19.5381C-5.34545 19.778 -5.41925 20.0725 -5.41925 20.4217C-5.41925 20.7713 -5.34545 21.066 -5.19784 21.3059ZM-5.46739 28.8304L-6.0835 26.5308C-5.60858 26.2283 -5.20259 25.9155 -4.86552 25.5922C-4.52872 25.2689 -4.15494 24.8256 -3.7442 24.2625L-3.64793 25.0759C-3.62226 25.2845 -3.62868 25.4906 -3.66718 25.6942C-3.70569 25.8973 -3.76987 26.0719 -3.85972 26.2179L-5.46739 28.8304ZM-9.2122 25.1854C-8.98757 24.8204 -8.71481 24.6352 -8.39392 24.6298C-8.07303 24.6248 -7.80027 24.8048 -7.57565 25.1698C-7.35102 25.5348 -7.23871 25.978 -7.23871 26.4995C-7.23871 27.0209 -7.35102 27.4642 -7.57565 27.8292C-7.73609 28.0899 -8.00397 28.3141 -8.37929 28.5019C-8.75486 28.6896 -9.27317 28.8564 -9.9342 29.0024C-9.84435 27.9283 -9.74167 27.0887 -9.62615 26.4838C-9.51063 25.879 -9.37264 25.4462 -9.2122 25.1854ZM21.9786 19.1314L20.3613 21.7595L21.7764 22.7451C21.9626 21.9733 22.1551 21.3163 22.354 20.774C22.553 20.2317 22.8258 19.6268 23.1723 18.9593L22.6717 18.7873C22.5434 18.7455 22.4182 18.756 22.2963 18.8185C22.1743 18.8811 22.0685 18.9854 21.9786 19.1314ZM22.9363 21.0556C22.6829 21.723 22.4824 22.4322 22.3348 23.1831L23.8366 25.6391C24.2987 25.3992 24.7383 25.0682 25.1554 24.6461C25.5726 24.2235 25.9577 23.7254 26.3106 23.1518C26.8754 22.234 27.2958 21.1859 27.5718 20.0074C27.8477 18.829 27.9312 17.7287 27.822 16.7067C27.1931 16.5294 26.516 16.6675 25.7908 17.1209C25.0656 17.5748 24.4206 18.2606 23.8558 19.1783C23.4964 19.7624 23.1899 20.3881 22.9363 21.0556ZM25.5359 21.6657C25.3208 21.6657 25.1394 21.5457 24.9918 21.3059C24.8442 21.066 24.7704 20.7713 24.7704 20.4217C24.7704 20.0725 24.8442 19.778 24.9918 19.5381C25.1394 19.2983 25.3208 19.1783 25.5359 19.1783C25.7508 19.1783 25.932 19.2983 26.0796 19.5381C26.2272 19.778 26.301 20.0725 26.301 20.4217C26.301 20.7713 26.2272 21.066 26.0796 21.3059C25.932 21.5457 25.7508 21.6657 25.5359 21.6657ZM24.1061 26.5308L24.7222 28.8304L26.3299 26.2179C26.4198 26.0719 26.4839 25.8973 26.5224 25.6942C26.5609 25.4906 26.5674 25.2845 26.5417 25.0759L26.4454 24.2625C26.0347 24.8256 25.6609 25.2689 25.3241 25.5922C24.987 25.9155 24.581 26.2283 24.1061 26.5308ZM21.7957 24.6298C21.4748 24.6352 21.202 24.8204 20.9774 25.1854C20.817 25.4462 20.679 25.879 20.5635 26.4838C20.448 27.0887 20.3453 27.9283 20.2554 29.0024C20.9165 28.8564 21.4348 28.6896 21.8103 28.5019C22.1856 28.3141 22.4535 28.0899 22.614 27.8292C22.8386 27.4642 22.9509 27.0209 22.9509 26.4995C22.9509 25.978 22.8386 25.5348 22.614 25.1698C22.3893 24.8048 22.1166 24.6248 21.7957 24.6298ZM42.8572 21.7595L41.2399 19.1314C41.15 18.9854 41.0441 18.8811 40.9222 18.8185C40.8003 18.756 40.6751 18.7455 40.5468 18.7873L40.0462 18.9593C40.3927 19.6268 40.6655 20.2317 40.8644 20.774C41.0634 21.3163 41.2559 21.9733 41.4421 22.7451L42.8572 21.7595ZM40.8837 23.1831C40.7361 22.4322 40.5356 21.723 40.2822 21.0556C40.0286 20.3881 39.7221 19.7624 39.3627 19.1783C38.7979 18.2606 38.1529 17.5748 37.4277 17.1209C36.7025 16.6675 36.0254 16.5294 35.3964 16.7067C35.2873 17.7287 35.3708 18.829 35.6467 20.0074C35.9227 21.1859 36.3431 22.234 36.9078 23.1518C37.2608 23.7254 37.6459 24.2235 38.0631 24.6461C38.4802 25.0682 38.9198 25.3992 39.3819 25.6391L40.8837 23.1831ZM38.2267 21.3059C38.0791 21.5457 37.8977 21.6657 37.6826 21.6657C37.4677 21.6657 37.2865 21.5457 37.1389 21.3059C36.9913 21.066 36.9175 20.7713 36.9175 20.4217C36.9175 20.0725 36.9913 19.778 37.1389 19.5381C37.2865 19.2983 37.4677 19.1783 37.6826 19.1783C37.8977 19.1783 38.0791 19.2983 38.2267 19.5381C38.3743 19.778 38.4481 20.0725 38.4481 20.4217C38.4481 20.7713 38.3743 21.066 38.2267 21.3059ZM38.4963 28.8304L39.1124 26.5308C38.6375 26.2283 38.2315 25.9155 37.8944 25.5922C37.5576 25.2689 37.1838 24.8256 36.7731 24.2625L36.6768 25.0759C36.6511 25.2845 36.6576 25.4906 36.6961 25.6942C36.7346 25.8973 36.7987 26.0719 36.8886 26.2179L38.4963 28.8304ZM42.2411 25.1854C42.0164 24.8204 41.7437 24.6352 41.4228 24.6298C41.1019 24.6248 40.8291 24.8048 40.6045 25.1698C40.3799 25.5348 40.2676 25.978 40.2676 26.4995C40.2676 27.0209 40.3799 27.4642 40.6045 27.8292C40.765 28.0899 41.0328 28.3141 41.4082 28.5019C41.7837 28.6896 42.302 28.8564 42.9631 29.0024C42.8732 27.9283 42.7705 27.0887 42.655 26.4838C42.5395 25.879 42.4015 25.4462 42.2411 25.1854ZM52.1681 19.1314L50.5508 21.7595L51.966 22.7451C52.1521 21.9733 52.3446 21.3163 52.5436 20.774C52.7425 20.2317 53.0153 19.6268 53.3618 18.9593L52.8612 18.7873C52.7329 18.7455 52.6077 18.756 52.4858 18.8185C52.3639 18.8811 52.258 18.9854 52.1681 19.1314ZM53.1258 21.0556C52.8724 21.723 52.6719 22.4322 52.5243 23.1831L54.0261 25.6391C54.4882 25.3992 54.9278 25.0682 55.3449 24.6461C55.7621 24.2235 56.1472 23.7254 56.5002 23.1518C57.0649 22.234 57.4853 21.1859 57.7613 20.0074C58.0372 18.829 58.1207 17.7287 58.0116 16.7067C57.3826 16.5294 56.7055 16.6675 55.9803 17.1209C55.2551 17.5748 54.6101 18.2606 54.0453 19.1783C53.6859 19.7624 53.3794 20.3881 53.1258 21.0556ZM55.7254 21.6657C55.5103 21.6657 55.3289 21.5457 55.1813 21.3059C55.0337 21.066 54.9599 20.7713 54.9599 20.4217C54.9599 20.0725 55.0337 19.778 55.1813 19.5381C55.3289 19.2983 55.5103 19.1783 55.7254 19.1783C55.9403 19.1783 56.1215 19.2983 56.2691 19.5381C56.4167 19.778 56.4905 20.0725 56.4905 20.4217C56.4905 20.7713 56.4167 21.066 56.2691 21.3059C56.1215 21.5457 55.9403 21.6657 55.7254 21.6657ZM54.2956 26.5308L54.9117 28.8304L56.5194 26.2179C56.6093 26.0719 56.6734 25.8973 56.712 25.6942C56.7505 25.4906 56.7569 25.2845 56.7312 25.0759L56.6349 24.2625C56.2242 24.8256 55.8504 25.2689 55.5136 25.5922C55.1765 25.9155 54.7706 26.2283 54.2956 26.5308ZM51.9852 24.6298C51.6643 24.6352 51.3916 24.8204 51.1669 25.1854C51.0065 25.4462 50.8685 25.879 50.753 26.4838C50.6375 27.0887 50.5348 27.9283 50.4449 29.0024C51.106 28.8564 51.6243 28.6896 51.9998 28.5019C52.3752 28.3141 52.643 28.0899 52.8035 27.8292C53.0281 27.4642 53.1404 27.0209 53.1404 26.4995C53.1404 25.978 53.0281 25.5348 52.8035 25.1698C52.5789 24.8048 52.3061 24.6248 51.9852 24.6298ZM73.0467 21.7595L71.4294 19.1314C71.3396 18.9854 71.2337 18.8811 71.1117 18.8185C70.9898 18.756 70.8646 18.7455 70.7363 18.7873L70.2357 18.9593C70.5823 19.6268 70.855 20.2317 71.054 20.774C71.2529 21.3163 71.4454 21.9733 71.6316 22.7451L73.0467 21.7595ZM71.0732 23.1831C70.9256 22.4322 70.7251 21.723 70.4717 21.0556C70.2181 20.3881 69.9116 19.7624 69.5522 19.1783C68.9874 18.2606 68.3424 17.5748 67.6172 17.1209C66.892 16.6675 66.2149 16.5294 65.586 16.7067C65.4769 17.7287 65.5603 18.829 65.8363 20.0074C66.1122 21.1859 66.5326 22.234 67.0974 23.1518C67.4503 23.7254 67.8354 24.2235 68.2526 24.6461C68.6697 25.0682 69.1094 25.3992 69.5714 25.6391L71.0732 23.1831ZM68.4162 21.3059C68.2686 21.5457 68.0872 21.6657 67.8721 21.6657C67.6573 21.6657 67.476 21.5457 67.3284 21.3059C67.1808 21.066 67.107 20.7713 67.107 20.4217C67.107 20.0725 67.1808 19.778 67.3284 19.5381C67.476 19.2983 67.6573 19.1783 67.8721 19.1783C68.0872 19.1783 68.2686 19.2983 68.4162 19.5381C68.5638 19.778 68.6376 20.0725 68.6376 20.4217C68.6376 20.7713 68.5638 21.066 68.4162 21.3059ZM68.6858 28.8304L69.3019 26.5308C68.827 26.2283 68.421 25.9155 68.0839 25.5922C67.7471 25.2689 67.3733 24.8256 66.9626 24.2625L66.8663 25.0759C66.8407 25.2845 66.8471 25.4906 66.8856 25.6942C66.9241 25.8973 66.9883 26.0719 67.0781 26.2179L68.6858 28.8304ZM72.4306 25.1854C72.206 24.8204 71.9332 24.6352 71.6123 24.6298C71.2914 24.6248 71.0187 24.8048 70.794 25.1698C70.5694 25.5348 70.4571 25.978 70.4571 26.4995C70.4571 27.0209 70.5694 27.4642 70.794 27.8292C70.9545 28.0899 71.2224 28.3141 71.5977 28.5019C71.9733 28.6896 72.4916 28.8564 73.1526 29.0024C73.0627 27.9283 72.9601 27.0887 72.8445 26.4838C72.729 25.879 72.591 25.4462 72.4306 25.1854ZM11.0504 55.5044L12.6677 58.1325L11.2525 59.118C11.0664 58.3463 10.8739 57.6892 10.6749 57.1469C10.476 56.6046 10.2032 55.9998 9.85665 55.3323L10.3572 55.1602C10.4856 55.1185 10.6107 55.1289 10.7327 55.1915C10.8546 55.2541 10.9605 55.3584 11.0504 55.5044ZM10.0927 57.4285C10.3461 58.096 10.5466 58.8051 10.6942 59.556L9.19241 62.0121C8.73032 61.7722 8.2907 61.4412 7.87354 61.019C7.45638 60.5964 7.07131 60.0983 6.71833 59.5247C6.15356 58.607 5.73319 57.5589 5.45722 56.3804C5.18126 55.2019 5.09782 54.1017 5.20693 53.0796C5.83588 52.9023 6.51296 53.0404 7.23817 53.4939C7.96339 53.9477 8.60838 54.6336 9.17315 55.5513C9.53255 56.1353 9.83907 56.7611 10.0927 57.4285ZM7.49309 58.0386C7.70822 58.0386 7.88958 57.9187 8.0372 57.6788C8.1848 57.439 8.25861 57.1442 8.25861 56.7946C8.25861 56.4455 8.1848 56.151 8.0372 55.9111C7.88958 55.6712 7.70822 55.5513 7.49309 55.5513C7.27822 55.5513 7.09698 55.6712 6.94937 55.9111C6.80176 56.151 6.72795 56.4455 6.72795 56.7946C6.72795 57.1442 6.80176 57.439 6.94937 57.6788C7.09698 57.9187 7.27822 58.0386 7.49309 58.0386ZM8.92286 62.9037L8.30674 65.2033L6.69908 62.5909C6.60922 62.4449 6.54505 62.2703 6.50654 62.0671C6.46803 61.8636 6.46161 61.6575 6.48729 61.4489L6.58355 60.6354C6.9943 61.1986 7.36807 61.6418 7.70488 61.9651C8.04194 62.2884 8.44794 62.6013 8.92286 62.9037ZM11.2333 61.0027C11.5542 61.0082 11.8269 61.1934 12.0516 61.5584C12.212 61.8191 12.35 62.2519 12.4655 62.8568C12.581 63.4617 12.6837 64.3012 12.7736 65.3754C12.1125 65.2294 11.5942 65.0625 11.2186 64.8748C10.8433 64.6871 10.5754 64.4629 10.415 64.2021C10.1904 63.8371 10.0781 63.3939 10.0781 62.8725C10.0781 62.351 10.1904 61.9078 10.415 61.5428C10.6396 61.1777 10.9124 60.9977 11.2333 61.0027ZM-8.21101 55.5044L-9.82831 58.1325L-8.41318 59.118C-8.22706 58.3463 -8.03452 57.6892 -7.83557 57.1469C-7.63662 56.6046 -7.36386 55.9998 -7.0173 55.3323L-7.51789 55.1602C-7.64624 55.1185 -7.77139 55.1289 -7.89333 55.1915C-8.01527 55.2541 -8.12116 55.3584 -8.21101 55.5044ZM-7.25334 57.4285C-7.50672 58.096 -7.70721 58.8051 -7.85482 59.556L-6.35305 62.0121C-5.89097 61.7722 -5.45134 61.4412 -5.03418 61.019C-4.61702 60.5964 -4.23195 60.0983 -3.87897 59.5247C-3.3142 58.607 -2.89384 57.5589 -2.61787 56.3804C-2.3419 55.2019 -2.25847 54.1017 -2.36757 53.0796C-2.99652 52.9023 -3.6736 53.0404 -4.39882 53.4939C-5.12403 53.9477 -5.76903 54.6336 -6.3338 55.5513C-6.6932 56.1353 -6.99971 56.7611 -7.25334 57.4285ZM-4.65374 58.0386C-4.86886 58.0386 -5.05023 57.9187 -5.19784 57.6788C-5.34545 57.439 -5.41925 57.1442 -5.41925 56.7946C-5.41925 56.4455 -5.34545 56.151 -5.19784 55.9111C-5.05023 55.6712 -4.86886 55.5513 -4.65374 55.5513C-4.43887 55.5513 -4.25763 55.6712 -4.11002 55.9111C-3.96241 56.151 -3.8886 56.4455 -3.8886 56.7946C-3.8886 57.1442 -3.96241 57.439 -4.11002 57.6788C-4.25763 57.9187 -4.43887 58.0386 -4.65374 58.0386ZM-6.0835 62.9037L-5.46739 65.2033L-3.85972 62.5909C-3.76987 62.4449 -3.70569 62.2703 -3.66718 62.0671C-3.62868 61.8636 -3.62226 61.6575 -3.64793 61.4489L-3.7442 60.6354C-4.15494 61.1986 -4.52872 61.6418 -4.86552 61.9651C-5.20259 62.2884 -5.60858 62.6013 -6.0835 62.9037ZM-8.39392 61.0027C-8.71481 61.0082 -8.98757 61.1934 -9.2122 61.5584C-9.37264 61.8191 -9.51063 62.2519 -9.62615 62.8568C-9.74167 63.4617 -9.84435 64.3012 -9.9342 65.3754C-9.27317 65.2294 -8.75486 65.0625 -8.37929 64.8748C-8.00397 64.6871 -7.73609 64.4629 -7.57565 64.2021C-7.35102 63.8371 -7.23871 63.3939 -7.23871 62.8725C-7.23871 62.351 -7.35102 61.9078 -7.57565 61.5428C-7.80027 61.1777 -8.07303 60.9977 -8.39392 61.0027ZM20.3613 58.1325L21.9786 55.5044C22.0685 55.3584 22.1743 55.2541 22.2963 55.1915C22.4182 55.1289 22.5434 55.1185 22.6717 55.1602L23.1723 55.3323C22.8258 55.9998 22.553 56.6046 22.354 57.1469C22.1551 57.6892 21.9626 58.3463 21.7764 59.118L20.3613 58.1325ZM22.3348 59.556C22.4824 58.8051 22.6829 58.096 22.9363 57.4285C23.1899 56.7611 23.4964 56.1353 23.8558 55.5513C24.4206 54.6336 25.0656 53.9477 25.7908 53.4939C26.516 53.0404 27.1931 52.9023 27.822 53.0796C27.9312 54.1017 27.8477 55.2019 27.5718 56.3804C27.2958 57.5589 26.8754 58.607 26.3106 59.5247C25.9577 60.0983 25.5726 60.5964 25.1554 61.019C24.7383 61.4412 24.2987 61.7722 23.8366 62.0121L22.3348 59.556ZM24.9918 57.6788C25.1394 57.9187 25.3208 58.0386 25.5359 58.0386C25.7508 58.0386 25.932 57.9187 26.0796 57.6788C26.2272 57.439 26.301 57.1442 26.301 56.7946C26.301 56.4455 26.2272 56.151 26.0796 55.9111C25.932 55.6712 25.7508 55.5513 25.5359 55.5513C25.3208 55.5513 25.1394 55.6712 24.9918 55.9111C24.8442 56.151 24.7704 56.4455 24.7704 56.7946C24.7704 57.1442 24.8442 57.439 24.9918 57.6788ZM24.7222 65.2033L24.1061 62.9037C24.581 62.6013 24.987 62.2884 25.3241 61.9651C25.6609 61.6418 26.0347 61.1986 26.4454 60.6354L26.5417 61.4489C26.5674 61.6575 26.5609 61.8636 26.5224 62.0671C26.4839 62.2703 26.4198 62.4449 26.3299 62.5909L24.7222 65.2033ZM20.9774 61.5584C21.202 61.1934 21.4748 61.0082 21.7957 61.0027C22.1166 60.9977 22.3893 61.1777 22.614 61.5428C22.8386 61.9078 22.9509 62.351 22.9509 62.8725C22.9509 63.3939 22.8386 63.8371 22.614 64.2021C22.4535 64.4629 22.1856 64.6871 21.8103 64.8748C21.4348 65.0625 20.9165 65.2294 20.2554 65.3754C20.3453 64.3012 20.448 63.4617 20.5635 62.8568C20.679 62.2519 20.817 61.8191 20.9774 61.5584ZM41.2399 55.5044L42.8572 58.1325L41.4421 59.118C41.2559 58.3463 41.0634 57.6892 40.8644 57.1469C40.6655 56.6046 40.3927 55.9998 40.0462 55.3323L40.5468 55.1602C40.6751 55.1185 40.8003 55.1289 40.9222 55.1915C41.0441 55.2541 41.15 55.3584 41.2399 55.5044ZM40.2822 57.4285C40.5356 58.096 40.7361 58.8051 40.8837 59.556L39.3819 62.0121C38.9198 61.7722 38.4802 61.4412 38.0631 61.019C37.6459 60.5964 37.2608 60.0983 36.9078 59.5247C36.3431 58.607 35.9227 57.5589 35.6467 56.3804C35.3708 55.2019 35.2873 54.1017 35.3964 53.0796C36.0254 52.9023 36.7025 53.0404 37.4277 53.4939C38.1529 53.9477 38.7979 54.6336 39.3627 55.5513C39.7221 56.1353 40.0286 56.7611 40.2822 57.4285ZM37.6826 58.0386C37.8977 58.0386 38.0791 57.9187 38.2267 57.6788C38.3743 57.439 38.4481 57.1442 38.4481 56.7946C38.4481 56.4455 38.3743 56.151 38.2267 55.9111C38.0791 55.6712 37.8977 55.5513 37.6826 55.5513C37.4677 55.5513 37.2865 55.6712 37.1389 55.9111C36.9913 56.151 36.9175 56.4455 36.9175 56.7946C36.9175 57.1442 36.9913 57.439 37.1389 57.6788C37.2865 57.9187 37.4677 58.0386 37.6826 58.0386ZM39.1124 62.9037L38.4963 65.2033L36.8886 62.5909C36.7987 62.4449 36.7346 62.2703 36.6961 62.0671C36.6576 61.8636 36.6511 61.6575 36.6768 61.4489L36.7731 60.6354C37.1838 61.1986 37.5576 61.6418 37.8944 61.9651C38.2315 62.2884 38.6375 62.6013 39.1124 62.9037ZM41.4228 61.0027C41.7437 61.0082 42.0164 61.1934 42.2411 61.5584C42.4015 61.8191 42.5395 62.2519 42.655 62.8568C42.7705 63.4617 42.8732 64.3012 42.9631 65.3754C42.302 65.2294 41.7837 65.0625 41.4082 64.8748C41.0328 64.6871 40.765 64.4629 40.6045 64.2021C40.3799 63.8371 40.2676 63.3939 40.2676 62.8725C40.2676 62.351 40.3799 61.9078 40.6045 61.5428C40.8291 61.1777 41.1019 60.9977 41.4228 61.0027ZM50.5508 58.1325L52.1681 55.5044C52.258 55.3584 52.3639 55.2541 52.4858 55.1915C52.6077 55.1289 52.7329 55.1185 52.8612 55.1602L53.3618 55.3323C53.0153 55.9998 52.7425 56.6046 52.5436 57.1469C52.3446 57.6892 52.1521 58.3463 51.966 59.118L50.5508 58.1325ZM52.5243 59.556C52.6719 58.8051 52.8724 58.096 53.1258 57.4285C53.3794 56.7611 53.6859 56.1353 54.0453 55.5513C54.6101 54.6336 55.2551 53.9477 55.9803 53.4939C56.7055 53.0404 57.3826 52.9023 58.0116 53.0796C58.1207 54.1017 58.0372 55.2019 57.7613 56.3804C57.4853 57.5589 57.0649 58.607 56.5002 59.5247C56.1472 60.0983 55.7621 60.5964 55.3449 61.019C54.9278 61.4412 54.4882 61.7722 54.0261 62.0121L52.5243 59.556ZM55.1813 57.6788C55.3289 57.9187 55.5103 58.0386 55.7254 58.0386C55.9403 58.0386 56.1215 57.9187 56.2691 57.6788C56.4167 57.439 56.4905 57.1442 56.4905 56.7946C56.4905 56.4455 56.4167 56.151 56.2691 55.9111C56.1215 55.6712 55.9403 55.5513 55.7254 55.5513C55.5103 55.5513 55.3289 55.6712 55.1813 55.9111C55.0337 56.151 54.9599 56.4455 54.9599 56.7946C54.9599 57.1442 55.0337 57.439 55.1813 57.6788ZM54.9117 65.2033L54.2956 62.9037C54.7706 62.6013 55.1765 62.2884 55.5136 61.9651C55.8504 61.6418 56.2242 61.1986 56.6349 60.6354L56.7312 61.4489C56.7569 61.6575 56.7505 61.8636 56.712 62.0671C56.6734 62.2703 56.6093 62.4449 56.5194 62.5909L54.9117 65.2033ZM51.1669 61.5584C51.3916 61.1934 51.6643 61.0082 51.9852 61.0027C52.3061 60.9977 52.5789 61.1777 52.8035 61.5428C53.0281 61.9078 53.1404 62.351 53.1404 62.8725C53.1404 63.3939 53.0281 63.8371 52.8035 64.2021C52.643 64.4629 52.3752 64.6871 51.9998 64.8748C51.6243 65.0625 51.106 65.2294 50.4449 65.3754C50.5348 64.3012 50.6375 63.4617 50.753 62.8568C50.8685 62.2519 51.0065 61.8191 51.1669 61.5584ZM71.4294 55.5044L73.0467 58.1325L71.6316 59.118C71.4454 58.3463 71.2529 57.6892 71.054 57.1469C70.855 56.6046 70.5823 55.9998 70.2357 55.3323L70.7363 55.1602C70.8646 55.1185 70.9898 55.1289 71.1117 55.1915C71.2337 55.2541 71.3396 55.3584 71.4294 55.5044ZM70.4717 57.4285C70.7251 58.096 70.9256 58.8051 71.0732 59.556L69.5714 62.0121C69.1094 61.7722 68.6697 61.4412 68.2526 61.019C67.8354 60.5964 67.4503 60.0983 67.0974 59.5247C66.5326 58.607 66.1122 57.5589 65.8363 56.3804C65.5603 55.2019 65.4769 54.1017 65.586 53.0796C66.2149 52.9023 66.892 53.0404 67.6172 53.4939C68.3424 53.9477 68.9874 54.6336 69.5522 55.5513C69.9116 56.1353 70.2181 56.7611 70.4717 57.4285ZM67.8721 58.0386C68.0872 58.0386 68.2686 57.9187 68.4162 57.6788C68.5638 57.439 68.6376 57.1442 68.6376 56.7946C68.6376 56.4455 68.5638 56.151 68.4162 55.9111C68.2686 55.6712 68.0872 55.5513 67.8721 55.5513C67.6573 55.5513 67.476 55.6712 67.3284 55.9111C67.1808 56.151 67.107 56.4455 67.107 56.7946C67.107 57.1442 67.1808 57.439 67.3284 57.6788C67.476 57.9187 67.6573 58.0386 67.8721 58.0386ZM69.3019 62.9037L68.6858 65.2033L67.0781 62.5909C66.9883 62.4449 66.9241 62.2703 66.8856 62.0671C66.8471 61.8636 66.8407 61.6575 66.8663 61.4489L66.9626 60.6354C67.3733 61.1986 67.7471 61.6418 68.0839 61.9651C68.421 62.2884 68.827 62.6013 69.3019 62.9037ZM71.6123 61.0027C71.9332 61.0082 72.206 61.1934 72.4306 61.5584C72.591 61.8191 72.729 62.2519 72.8445 62.8568C72.9601 63.4617 73.0627 64.3012 73.1526 65.3754C72.4916 65.2294 71.9733 65.0625 71.5977 64.8748C71.2224 64.6871 70.9545 64.4629 70.794 64.2021C70.5694 63.8371 70.4571 63.3939 70.4571 62.8725C70.4571 62.351 70.5694 61.9078 70.794 61.5428C71.0187 61.1777 71.2914 60.9977 71.6123 61.0027ZM3.85903 39.9689L2.24173 37.3408C2.15188 37.1948 2.04599 37.0905 1.92405 37.0279C1.80211 36.9654 1.67696 36.9549 1.5486 36.9966L1.04801 37.1687C1.39458 37.8362 1.66733 38.4411 1.86629 38.9834C2.06524 39.5257 2.25777 40.1827 2.44389 40.9544L3.85903 39.9689ZM1.88554 41.3925C1.73793 40.6416 1.53744 39.9324 1.28406 39.2649C1.03043 38.5975 0.723911 37.9718 0.364512 37.3877C-0.200257 36.47 -0.84525 35.7842 -1.57047 35.3303C-2.29568 34.8768 -2.97276 34.7388 -3.60171 34.9161C-3.71082 35.9381 -3.62738 37.0384 -3.35142 38.2168C-3.07545 39.3953 -2.65508 40.4434 -2.09031 41.3612C-1.73733 41.9348 -1.35226 42.4329 -0.9351 42.8554C-0.517941 43.2776 -0.0783186 43.6086 0.383766 43.8485L1.88554 41.3925ZM-0.771445 39.5152C-0.919055 39.7551 -1.10042 39.875 -1.31555 39.875C-1.53042 39.875 -1.71166 39.7551 -1.85927 39.5152C-2.00688 39.2754 -2.08068 38.9807 -2.08068 38.6311C-2.08068 38.2819 -2.00688 37.9874 -1.85927 37.7475C-1.71166 37.5077 -1.53042 37.3877 -1.31555 37.3877C-1.10042 37.3877 -0.919055 37.5077 -0.771445 37.7475C-0.623835 37.9874 -0.55003 38.2819 -0.55003 38.6311C-0.55003 38.9807 -0.623835 39.2754 -0.771445 39.5152ZM-0.501896 47.0398L0.114217 44.7402C-0.360703 44.4377 -0.766696 44.1249 -1.10376 43.8016C-1.44057 43.4783 -1.81434 43.035 -2.22509 42.4719L-2.32135 43.2853C-2.34702 43.4939 -2.34061 43.7 -2.3021 43.9036C-2.26359 44.1067 -2.19941 44.2813 -2.10956 44.4273L-0.501896 47.0398ZM3.24291 43.3948C3.01829 43.0298 2.74553 42.8446 2.42464 42.8392C2.10375 42.8342 1.83099 43.0142 1.60636 43.3792C1.38174 43.7442 1.26943 44.1874 1.26943 44.7089C1.26943 45.2303 1.38174 45.6736 1.60636 46.0386C1.76681 46.2993 2.03469 46.5235 2.41001 46.7112C2.78558 46.899 3.30388 47.0658 3.96492 47.2118C3.87507 46.1376 3.77238 45.2981 3.65686 44.6932C3.54134 44.0884 3.40336 43.6556 3.24291 43.3948ZM11.5527 39.9689L13.17 37.3408C13.2598 37.1948 13.3657 37.0905 13.4876 37.0279C13.6096 36.9654 13.7347 36.9549 13.8631 36.9966L14.3637 37.1687C14.0171 37.8362 13.7444 38.4411 13.5454 38.9834C13.3465 39.5257 13.1539 40.1827 12.9678 40.9544L11.5527 39.9689ZM13.5262 41.3925C13.6738 40.6416 13.8743 39.9324 14.1276 39.2649C14.3813 38.5975 14.6878 37.9718 15.0472 37.3877C15.612 36.47 16.2569 35.7842 16.9822 35.3303C17.7074 34.8768 18.3845 34.7388 19.0134 34.9161C19.1225 35.9381 19.0391 37.0384 18.7631 38.2168C18.4871 39.3953 18.0668 40.4434 17.502 41.3612C17.149 41.9348 16.764 42.4329 16.3468 42.8554C15.9296 43.2776 15.49 43.6086 15.0279 43.8485L13.5262 41.3925ZM16.1831 39.5152C16.3307 39.7551 16.5121 39.875 16.7272 39.875C16.9421 39.875 17.1234 39.7551 17.271 39.5152C17.4186 39.2754 17.4924 38.9807 17.4924 38.6311C17.4924 38.2819 17.4186 37.9874 17.271 37.7475C17.1234 37.5077 16.9421 37.3877 16.7272 37.3877C16.5121 37.3877 16.3307 37.5077 16.1831 37.7475C16.0355 37.9874 15.9617 38.2819 15.9617 38.6311C15.9617 38.9807 16.0355 39.2754 16.1831 39.5152ZM15.9136 47.0398L15.2975 44.7402C15.7724 44.4377 16.1784 44.1249 16.5155 43.8016C16.8523 43.4783 17.226 43.035 17.6368 42.4719L17.733 43.2853C17.7587 43.4939 17.7523 43.7 17.7138 43.9036C17.6753 44.1067 17.6111 44.2813 17.5213 44.4273L15.9136 47.0398ZM12.1688 43.3948C12.3934 43.0298 12.6662 42.8446 12.9871 42.8392C13.3079 42.8342 13.5807 43.0142 13.8053 43.3792C14.03 43.7442 14.1423 44.1874 14.1423 44.7089C14.1423 45.2303 14.03 45.6736 13.8053 46.0386C13.6449 46.2993 13.377 46.5235 13.0017 46.7112C12.6261 46.899 12.1078 47.0658 11.4468 47.2118C11.5366 46.1376 11.6393 45.2981 11.7548 44.6932C11.8704 44.0884 12.0083 43.6556 12.1688 43.3948ZM32.4312 37.3408L34.0485 39.9689L32.6334 40.9544C32.4473 40.1827 32.2548 39.5257 32.0558 38.9834C31.8568 38.4411 31.5841 37.8362 31.2375 37.1687L31.7381 36.9966C31.8665 36.9549 31.9916 36.9654 32.1136 37.0279C32.2355 37.0905 32.3414 37.1948 32.4312 37.3408ZM31.4736 39.2649C31.727 39.9324 31.9274 40.6416 32.0751 41.3925L30.5733 43.8485C30.1112 43.6086 29.6716 43.2776 29.2544 42.8554C28.8373 42.4329 28.4522 41.9348 28.0992 41.3612C27.5344 40.4434 27.1141 39.3953 26.8381 38.2168C26.5621 37.0384 26.4787 35.9381 26.5878 34.9161C27.2167 34.7388 27.8938 34.8768 28.619 35.3303C29.3443 35.7842 29.9893 36.47 30.554 37.3877C30.9134 37.9718 31.2199 38.5975 31.4736 39.2649ZM28.874 39.875C29.0891 39.875 29.2705 39.7551 29.4181 39.5152C29.5657 39.2754 29.6395 38.9807 29.6395 38.6311C29.6395 38.2819 29.5657 37.9874 29.4181 37.7475C29.2705 37.5077 29.0891 37.3877 28.874 37.3877C28.6591 37.3877 28.4779 37.5077 28.3302 37.7475C28.1826 37.9874 28.1088 38.2819 28.1088 38.6311C28.1088 38.9807 28.1826 39.2754 28.3302 39.5152C28.4779 39.7551 28.6591 39.875 28.874 39.875ZM30.3037 44.7402L29.6876 47.0398L28.0799 44.4273C27.9901 44.2813 27.9259 44.1067 27.8874 43.9036C27.8489 43.7 27.8425 43.4939 27.8682 43.2853L27.9644 42.4719C28.3752 43.035 28.7489 43.4783 29.0858 43.8016C29.4228 44.1249 29.8288 44.4377 30.3037 44.7402ZM32.6142 42.8392C32.935 42.8446 33.2078 43.0298 33.4324 43.3948C33.5929 43.6556 33.7309 44.0884 33.8464 44.6932C33.9619 45.2981 34.0646 46.1376 34.1544 47.2118C33.4934 47.0658 32.9751 46.899 32.5995 46.7112C32.2242 46.5235 31.9563 46.2993 31.7959 46.0386C31.5713 45.6736 31.4589 45.2303 31.4589 44.7089C31.4589 44.1874 31.5713 43.7442 31.7959 43.3792C32.0205 43.0142 32.2933 42.8342 32.6142 42.8392ZM41.7422 39.9689L43.3595 37.3408C43.4493 37.1948 43.5552 37.0905 43.6772 37.0279C43.7991 36.9654 43.9243 36.9549 44.0526 36.9966L44.5532 37.1687C44.2066 37.8362 43.9339 38.4411 43.7349 38.9834C43.536 39.5257 43.3434 40.1827 43.1573 40.9544L41.7422 39.9689ZM43.7157 41.3925C43.8633 40.6416 44.0638 39.9324 44.3172 39.2649C44.5708 38.5975 44.8773 37.9718 45.2367 37.3877C45.8015 36.47 46.4465 35.7842 47.1717 35.3303C47.8969 34.8768 48.574 34.7388 49.2029 34.9161C49.312 35.9381 49.2286 37.0384 48.9526 38.2168C48.6767 39.3953 48.2563 40.4434 47.6915 41.3612C47.3385 41.9348 46.9535 42.4329 46.5363 42.8554C46.1192 43.2776 45.6795 43.6086 45.2174 43.8485L43.7157 41.3925ZM46.3727 39.5152C46.5203 39.7551 46.7016 39.875 46.9168 39.875C47.1316 39.875 47.3129 39.7551 47.4605 39.5152C47.6081 39.2754 47.6819 38.9807 47.6819 38.6311C47.6819 38.2819 47.6081 37.9874 47.4605 37.7475C47.3129 37.5077 47.1316 37.3877 46.9168 37.3877C46.7016 37.3877 46.5203 37.5077 46.3727 37.7475C46.225 37.9874 46.1512 38.2819 46.1512 38.6311C46.1512 38.9807 46.225 39.2754 46.3727 39.5152ZM46.1031 47.0398L45.487 44.7402C45.9619 44.4377 46.3679 44.1249 46.705 43.8016C47.0418 43.4783 47.4156 43.035 47.8263 42.4719L47.9226 43.2853C47.9482 43.4939 47.9418 43.7 47.9033 43.9036C47.8648 44.1067 47.8006 44.2813 47.7108 44.4273L46.1031 47.0398ZM42.3583 43.3948C42.5829 43.0298 42.8557 42.8446 43.1766 42.8392C43.4975 42.8342 43.7702 43.0142 43.9948 43.3792C44.2195 43.7442 44.3318 44.1874 44.3318 44.7089C44.3318 45.2303 44.2195 45.6736 43.9948 46.0386C43.8344 46.2993 43.5665 46.5235 43.1912 46.7112C42.8156 46.899 42.2973 47.0658 41.6363 47.2118C41.7261 46.1376 41.8288 45.2981 41.9443 44.6932C42.0599 44.0884 42.1979 43.6556 42.3583 43.3948ZM62.621 37.3408L64.2383 39.9689L62.8232 40.9544C62.6371 40.1827 62.4445 39.5257 62.2456 38.9834C62.0466 38.4411 61.7739 37.8362 61.4273 37.1687L61.9279 36.9966C62.0563 36.9549 62.1814 36.9654 62.3033 37.0279C62.4253 37.0905 62.5312 37.1948 62.621 37.3408ZM61.6633 39.2649C61.9167 39.9324 62.1172 40.6416 62.2648 41.3925L60.7631 43.8485C60.301 43.6086 59.8613 43.2776 59.4442 42.8554C59.027 42.4329 58.642 41.9348 58.289 41.3612C57.7242 40.4434 57.3038 39.3953 57.0279 38.2168C56.7519 37.0384 56.6685 35.9381 56.7776 34.9161C57.4065 34.7388 58.0836 34.8768 58.8088 35.3303C59.534 35.7842 60.179 36.47 60.7438 37.3877C61.1032 37.9718 61.4097 38.5975 61.6633 39.2649ZM59.0637 39.875C59.2789 39.875 59.4602 39.7551 59.6078 39.5152C59.7554 39.2754 59.8293 38.9807 59.8293 38.6311C59.8293 38.2819 59.7554 37.9874 59.6078 37.7475C59.4602 37.5077 59.2789 37.3877 59.0637 37.3877C58.8489 37.3877 58.6676 37.5077 58.52 37.7475C58.3724 37.9874 58.2986 38.2819 58.2986 38.6311C58.2986 38.9807 58.3724 39.2754 58.52 39.5152C58.6676 39.7551 58.8489 39.875 59.0637 39.875ZM60.4935 44.7402L59.8774 47.0398L58.2697 44.4273C58.1799 44.2813 58.1157 44.1067 58.0772 43.9036C58.0387 43.7 58.0323 43.4939 58.0579 43.2853L58.1542 42.4719C58.5649 43.035 58.9387 43.4783 59.2755 43.8016C59.6126 44.1249 60.0186 44.4377 60.4935 44.7402ZM62.8039 42.8392C63.1248 42.8446 63.3976 43.0298 63.6222 43.3948C63.7826 43.6556 63.9206 44.0884 64.0361 44.6932C64.1517 45.2981 64.2544 46.1376 64.3442 47.2118C63.6832 47.0658 63.1649 46.899 62.7893 46.7112C62.414 46.5235 62.1461 46.2993 61.9856 46.0386C61.761 45.6736 61.6487 45.2303 61.6487 44.7089C61.6487 44.1874 61.761 43.7442 61.9856 43.3792C62.2103 43.0142 62.483 42.8342 62.8039 42.8392ZM71.9317 39.9689L73.549 37.3408C73.6389 37.1948 73.7447 37.0905 73.8667 37.0279C73.9886 36.9654 74.1138 36.9549 74.2421 36.9966L74.7427 37.1687C74.3962 37.8362 74.1234 38.4411 73.9244 38.9834C73.7255 39.5257 73.533 40.1827 73.3468 40.9544L71.9317 39.9689ZM73.9052 41.3925C74.0528 40.6416 74.2533 39.9324 74.5067 39.2649C74.7603 38.5975 75.0668 37.9718 75.4262 37.3877C75.991 36.47 76.636 35.7842 77.3612 35.3303C78.0864 34.8768 78.7635 34.7388 79.3924 34.9161C79.5015 35.9381 79.4181 37.0384 79.1422 38.2168C78.8662 39.3953 78.4458 40.4434 77.881 41.3612C77.5281 41.9348 77.143 42.4329 76.7258 42.8554C76.3087 43.2776 75.869 43.6086 75.407 43.8485L73.9052 41.3925ZM76.5622 39.5152C76.7098 39.7551 76.8912 39.875 77.1063 39.875C77.3212 39.875 77.5024 39.7551 77.65 39.5152C77.7976 39.2754 77.8714 38.9807 77.8714 38.6311C77.8714 38.2819 77.7976 37.9874 77.65 37.7475C77.5024 37.5077 77.3212 37.3877 77.1063 37.3877C76.8912 37.3877 76.7098 37.5077 76.5622 37.7475C76.4146 37.9874 76.3408 38.2819 76.3408 38.6311C76.3408 38.9807 76.4146 39.2754 76.5622 39.5152ZM76.2926 47.0398L75.6765 44.7402C76.1514 44.4377 76.5574 44.1249 76.8945 43.8016C77.2313 43.4783 77.6051 43.035 78.0158 42.4719L78.1121 43.2853C78.1378 43.4939 78.1313 43.7 78.0928 43.9036C78.0543 44.1067 77.9902 44.2813 77.9003 44.4273L76.2926 47.0398ZM72.5478 43.3948C72.7724 43.0298 73.0452 42.8446 73.3661 42.8392C73.687 42.8342 73.9597 43.0142 74.1844 43.3792C74.409 43.7442 74.5213 44.1874 74.5213 44.7089C74.5213 45.2303 74.409 45.6736 74.1844 46.0386C74.0239 46.2993 73.756 46.5235 73.3807 46.7112C73.0052 46.899 72.4868 47.0658 71.8258 47.2118C71.9157 46.1376 72.0183 45.2981 72.1339 44.6932C72.2494 44.0884 72.3874 43.6556 72.5478 43.3948ZM-8.21101 91.9233L-9.82831 94.5514L-8.41318 95.5369C-8.22706 94.7652 -8.03452 94.1082 -7.83557 93.5659C-7.63662 93.0236 -7.36386 92.4187 -7.0173 91.7512L-7.51789 91.5791C-7.64624 91.5374 -7.77139 91.5479 -7.89333 91.6104C-8.01527 91.673 -8.12116 91.7773 -8.21101 91.9233ZM-7.25334 93.8474C-7.50672 94.5149 -7.70721 95.2241 -7.85482 95.975L-6.35305 98.431C-5.89097 98.1911 -5.45134 97.8601 -5.03418 97.4379C-4.61702 97.0154 -4.23195 96.5173 -3.87897 95.9437C-3.3142 95.0259 -2.89384 93.9778 -2.61787 92.7993C-2.3419 91.6209 -2.25847 90.5206 -2.36757 89.4986C-2.99652 89.3213 -3.6736 89.4593 -4.39882 89.9128C-5.12403 90.3667 -5.76903 91.0525 -6.3338 91.9702C-6.6932 92.5543 -6.99971 93.18 -7.25334 93.8474ZM-4.65374 94.4575C-4.86886 94.4575 -5.05023 94.3376 -5.19784 94.0977C-5.34545 93.8579 -5.41925 93.5631 -5.41925 93.2136C-5.41925 92.8644 -5.34545 92.5699 -5.19784 92.33C-5.05023 92.0902 -4.86886 91.9702 -4.65374 91.9702C-4.43887 91.9702 -4.25763 92.0902 -4.11002 92.33C-3.96241 92.5699 -3.8886 92.8644 -3.8886 93.2136C-3.8886 93.5631 -3.96241 93.8579 -4.11002 94.0977C-4.25763 94.3376 -4.43887 94.4575 -4.65374 94.4575ZM-6.0835 99.3227L-5.46739 101.622L-3.85972 99.0098C-3.76987 98.8638 -3.70569 98.6892 -3.66718 98.4861C-3.62868 98.2825 -3.62226 98.0764 -3.64793 97.8678L-3.7442 97.0544C-4.15494 97.6175 -4.52872 98.0608 -4.86552 98.3841C-5.20259 98.7074 -5.60858 99.0202 -6.0835 99.3227ZM-8.39392 97.4217C-8.71481 97.4271 -8.98757 97.6123 -9.2122 97.9773C-9.37264 98.238 -9.51063 98.6709 -9.62615 99.2757C-9.74167 99.8806 -9.84435 100.72 -9.9342 101.794C-9.27317 101.648 -8.75486 101.481 -8.37929 101.294C-8.00397 101.106 -7.73609 100.882 -7.57565 100.621C-7.35102 100.256 -7.23871 99.8128 -7.23871 99.2914C-7.23871 98.7699 -7.35102 98.3267 -7.57565 97.9617C-7.80027 97.5967 -8.07303 97.4167 -8.39392 97.4217ZM11.0504 91.9233L12.6677 94.5514L11.2525 95.5369C11.0664 94.7652 10.8739 94.1082 10.6749 93.5659C10.476 93.0236 10.2032 92.4187 9.85665 91.7512L10.3572 91.5791C10.4856 91.5374 10.6107 91.5479 10.7327 91.6104C10.8546 91.673 10.9605 91.7773 11.0504 91.9233ZM10.0927 93.8474C10.3461 94.5149 10.5466 95.2241 10.6942 95.975L9.19241 98.431C8.73032 98.1911 8.2907 97.8601 7.87354 97.4379C7.45638 97.0154 7.07131 96.5173 6.71833 95.9437C6.15356 95.0259 5.73319 93.9778 5.45722 92.7993C5.18126 91.6209 5.09782 90.5206 5.20693 89.4986C5.83588 89.3213 6.51296 89.4593 7.23817 89.9128C7.96339 90.3667 8.60838 91.0525 9.17315 91.9702C9.53255 92.5543 9.83907 93.18 10.0927 93.8474ZM7.49309 94.4575C7.70822 94.4575 7.88958 94.3376 8.0372 94.0977C8.1848 93.8579 8.25861 93.5631 8.25861 93.2136C8.25861 92.8644 8.1848 92.5699 8.0372 92.33C7.88958 92.0902 7.70822 91.9702 7.49309 91.9702C7.27822 91.9702 7.09698 92.0902 6.94937 92.33C6.80176 92.5699 6.72795 92.8644 6.72795 93.2136C6.72795 93.5631 6.80176 93.8579 6.94937 94.0977C7.09698 94.3376 7.27822 94.4575 7.49309 94.4575ZM8.92286 99.3227L8.30674 101.622L6.69908 99.0098C6.60922 98.8638 6.54505 98.6892 6.50654 98.4861C6.46803 98.2825 6.46161 98.0764 6.48729 97.8678L6.58355 97.0544C6.9943 97.6175 7.36807 98.0608 7.70488 98.3841C8.04194 98.7074 8.44794 99.0202 8.92286 99.3227ZM11.2333 97.4217C11.5542 97.4271 11.8269 97.6123 12.0516 97.9773C12.212 98.238 12.35 98.6709 12.4655 99.2757C12.581 99.8806 12.6837 100.72 12.7736 101.794C12.1125 101.648 11.5942 101.481 11.2186 101.294C10.8433 101.106 10.5754 100.882 10.415 100.621C10.1904 100.256 10.0781 99.8128 10.0781 99.2914C10.0781 98.7699 10.1904 98.3267 10.415 97.9617C10.6396 97.5967 10.9124 97.4167 11.2333 97.4217ZM20.3613 94.5514L21.9786 91.9233C22.0685 91.7773 22.1743 91.673 22.2963 91.6104C22.4182 91.5479 22.5434 91.5374 22.6717 91.5791L23.1723 91.7512C22.8258 92.4187 22.553 93.0236 22.354 93.5659C22.1551 94.1082 21.9626 94.7652 21.7764 95.5369L20.3613 94.5514ZM22.3348 95.975C22.4824 95.2241 22.6829 94.5149 22.9363 93.8474C23.1899 93.18 23.4964 92.5543 23.8558 91.9702C24.4206 91.0525 25.0656 90.3667 25.7908 89.9128C26.516 89.4593 27.1931 89.3213 27.822 89.4986C27.9312 90.5206 27.8477 91.6209 27.5718 92.7993C27.2958 93.9778 26.8754 95.0259 26.3106 95.9437C25.9577 96.5173 25.5726 97.0154 25.1554 97.4379C24.7383 97.8601 24.2987 98.1911 23.8366 98.431L22.3348 95.975ZM24.9918 94.0977C25.1394 94.3376 25.3208 94.4575 25.5359 94.4575C25.7508 94.4575 25.932 94.3376 26.0796 94.0977C26.2272 93.8579 26.301 93.5631 26.301 93.2136C26.301 92.8644 26.2272 92.5699 26.0796 92.33C25.932 92.0902 25.7508 91.9702 25.5359 91.9702C25.3208 91.9702 25.1394 92.0902 24.9918 92.33C24.8442 92.5699 24.7704 92.8644 24.7704 93.2136C24.7704 93.5631 24.8442 93.8579 24.9918 94.0977ZM24.7222 101.622L24.1061 99.3227C24.581 99.0202 24.987 98.7074 25.3241 98.3841C25.6609 98.0608 26.0347 97.6175 26.4454 97.0544L26.5417 97.8678C26.5674 98.0764 26.5609 98.2825 26.5224 98.4861C26.4839 98.6892 26.4198 98.8638 26.3299 99.0098L24.7222 101.622ZM20.9774 97.9773C21.202 97.6123 21.4748 97.4271 21.7957 97.4217C22.1166 97.4167 22.3893 97.5967 22.614 97.9617C22.8386 98.3267 22.9509 98.7699 22.9509 99.2914C22.9509 99.8128 22.8386 100.256 22.614 100.621C22.4535 100.882 22.1856 101.106 21.8103 101.294C21.4348 101.481 20.9165 101.648 20.2554 101.794C20.3453 100.72 20.448 99.8806 20.5635 99.2757C20.679 98.6709 20.817 98.238 20.9774 97.9773ZM41.2399 91.9233L42.8572 94.5514L41.4421 95.5369C41.2559 94.7652 41.0634 94.1082 40.8644 93.5659C40.6655 93.0236 40.3927 92.4187 40.0462 91.7512L40.5468 91.5791C40.6751 91.5374 40.8003 91.5479 40.9222 91.6104C41.0441 91.673 41.15 91.7773 41.2399 91.9233ZM40.2822 93.8474C40.5356 94.5149 40.7361 95.2241 40.8837 95.975L39.3819 98.431C38.9198 98.1911 38.4802 97.8601 38.0631 97.4379C37.6459 97.0154 37.2608 96.5173 36.9078 95.9437C36.3431 95.0259 35.9227 93.9778 35.6467 92.7993C35.3708 91.6209 35.2873 90.5206 35.3964 89.4986C36.0254 89.3213 36.7025 89.4593 37.4277 89.9128C38.1529 90.3667 38.7979 91.0525 39.3627 91.9702C39.7221 92.5543 40.0286 93.18 40.2822 93.8474ZM37.6826 94.4575C37.8977 94.4575 38.0791 94.3376 38.2267 94.0977C38.3743 93.8579 38.4481 93.5631 38.4481 93.2136C38.4481 92.8644 38.3743 92.5699 38.2267 92.33C38.0791 92.0902 37.8977 91.9702 37.6826 91.9702C37.4677 91.9702 37.2865 92.0902 37.1389 92.33C36.9913 92.5699 36.9175 92.8644 36.9175 93.2136C36.9175 93.5631 36.9913 93.8579 37.1389 94.0977C37.2865 94.3376 37.4677 94.4575 37.6826 94.4575ZM39.1124 99.3227L38.4963 101.622L36.8886 99.0098C36.7987 98.8638 36.7346 98.6892 36.6961 98.4861C36.6576 98.2825 36.6511 98.0764 36.6768 97.8678L36.7731 97.0544C37.1838 97.6175 37.5576 98.0608 37.8944 98.3841C38.2315 98.7074 38.6375 99.0202 39.1124 99.3227ZM41.4228 97.4217C41.7437 97.4271 42.0164 97.6123 42.2411 97.9773C42.4015 98.238 42.5395 98.6709 42.655 99.2757C42.7705 99.8806 42.8732 100.72 42.9631 101.794C42.302 101.648 41.7837 101.481 41.4082 101.294C41.0328 101.106 40.765 100.882 40.6045 100.621C40.3799 100.256 40.2676 99.8128 40.2676 99.2914C40.2676 98.7699 40.3799 98.3267 40.6045 97.9617C40.8291 97.5967 41.1019 97.4167 41.4228 97.4217ZM50.5508 94.5514L52.1681 91.9233C52.258 91.7773 52.3639 91.673 52.4858 91.6104C52.6077 91.5479 52.7329 91.5374 52.8612 91.5791L53.3618 91.7512C53.0153 92.4187 52.7425 93.0236 52.5436 93.5659C52.3446 94.1082 52.1521 94.7652 51.966 95.5369L50.5508 94.5514ZM52.5243 95.975C52.6719 95.2241 52.8724 94.5149 53.1258 93.8474C53.3794 93.18 53.6859 92.5543 54.0453 91.9702C54.6101 91.0525 55.2551 90.3667 55.9803 89.9128C56.7055 89.4593 57.3826 89.3213 58.0116 89.4986C58.1207 90.5206 58.0372 91.6209 57.7613 92.7993C57.4853 93.9778 57.0649 95.0259 56.5002 95.9437C56.1472 96.5173 55.7621 97.0154 55.3449 97.4379C54.9278 97.8601 54.4882 98.1911 54.0261 98.431L52.5243 95.975ZM55.1813 94.0977C55.3289 94.3376 55.5103 94.4575 55.7254 94.4575C55.9403 94.4575 56.1215 94.3376 56.2691 94.0977C56.4167 93.8579 56.4905 93.5631 56.4905 93.2136C56.4905 92.8644 56.4167 92.5699 56.2691 92.33C56.1215 92.0902 55.9403 91.9702 55.7254 91.9702C55.5103 91.9702 55.3289 92.0902 55.1813 92.33C55.0337 92.5699 54.9599 92.8644 54.9599 93.2136C54.9599 93.5631 55.0337 93.8579 55.1813 94.0977ZM54.9117 101.622L54.2956 99.3227C54.7706 99.0202 55.1765 98.7074 55.5136 98.3841C55.8504 98.0608 56.2242 97.6175 56.6349 97.0544L56.7312 97.8678C56.7569 98.0764 56.7505 98.2825 56.712 98.4861C56.6734 98.6892 56.6093 98.8638 56.5194 99.0098L54.9117 101.622ZM51.1669 97.9773C51.3916 97.6123 51.6643 97.4271 51.9852 97.4217C52.3061 97.4167 52.5789 97.5967 52.8035 97.9617C53.0281 98.3267 53.1404 98.7699 53.1404 99.2914C53.1404 99.8128 53.0281 100.256 52.8035 100.621C52.643 100.882 52.3752 101.106 51.9998 101.294C51.6243 101.481 51.106 101.648 50.4449 101.794C50.5348 100.72 50.6375 99.8806 50.753 99.2757C50.8685 98.6709 51.0065 98.238 51.1669 97.9773ZM71.4294 91.9233L73.0467 94.5514L71.6316 95.5369C71.4454 94.7652 71.2529 94.1082 71.054 93.5659C70.855 93.0236 70.5823 92.4187 70.2357 91.7512L70.7363 91.5791C70.8646 91.5374 70.9898 91.5479 71.1117 91.6104C71.2337 91.673 71.3396 91.7773 71.4294 91.9233ZM70.4717 93.8474C70.7251 94.5149 70.9256 95.2241 71.0732 95.975L69.5714 98.431C69.1094 98.1911 68.6697 97.8601 68.2526 97.4379C67.8354 97.0154 67.4503 96.5173 67.0974 95.9437C66.5326 95.0259 66.1122 93.9778 65.8363 92.7993C65.5603 91.6209 65.4769 90.5206 65.586 89.4986C66.2149 89.3213 66.892 89.4593 67.6172 89.9128C68.3424 90.3667 68.9874 91.0525 69.5522 91.9702C69.9116 92.5543 70.2181 93.18 70.4717 93.8474ZM67.8721 94.4575C68.0872 94.4575 68.2686 94.3376 68.4162 94.0977C68.5638 93.8579 68.6376 93.5631 68.6376 93.2136C68.6376 92.8644 68.5638 92.5699 68.4162 92.33C68.2686 92.0902 68.0872 91.9702 67.8721 91.9702C67.6573 91.9702 67.476 92.0902 67.3284 92.33C67.1808 92.5699 67.107 92.8644 67.107 93.2136C67.107 93.5631 67.1808 93.8579 67.3284 94.0977C67.476 94.3376 67.6573 94.4575 67.8721 94.4575ZM69.3019 99.3227L68.6858 101.622L67.0781 99.0098C66.9883 98.8638 66.9241 98.6892 66.8856 98.4861C66.8471 98.2825 66.8407 98.0764 66.8663 97.8678L66.9626 97.0544C67.3733 97.6175 67.7471 98.0608 68.0839 98.3841C68.421 98.7074 68.827 99.0202 69.3019 99.3227ZM71.6123 97.4217C71.9332 97.4271 72.206 97.6123 72.4306 97.9773C72.591 98.238 72.729 98.6709 72.8445 99.2757C72.9601 99.8806 73.0627 100.72 73.1526 101.794C72.4916 101.648 71.9733 101.481 71.5977 101.294C71.2224 101.106 70.9545 100.882 70.794 100.621C70.5694 100.256 70.4571 99.8128 70.4571 99.2914C70.4571 98.7699 70.5694 98.3267 70.794 97.9617C71.0187 97.5967 71.2914 97.4167 71.6123 97.4217ZM3.85903 76.3874L2.24173 73.7593C2.15188 73.6133 2.04599 73.509 1.92405 73.4464C1.80211 73.3838 1.67696 73.3734 1.5486 73.4151L1.04801 73.5872C1.39458 74.2546 1.66733 74.8595 1.86629 75.4018C2.06524 75.9441 2.25777 76.6012 2.44389 77.3729L3.85903 76.3874ZM1.88554 77.8109C1.73793 77.06 1.53744 76.3509 1.28406 75.6834C1.03043 75.016 0.723911 74.3902 0.364512 73.8062C-0.200257 72.8884 -0.84525 72.2026 -1.57047 71.7488C-2.29568 71.2953 -2.97276 71.1572 -3.60171 71.3345C-3.71082 72.3566 -3.62738 73.4568 -3.35142 74.6353C-3.07545 75.8138 -2.65508 76.8619 -2.09031 77.7796C-1.73733 78.3532 -1.35226 78.8513 -0.9351 79.2739C-0.517941 79.6961 -0.0783186 80.0271 0.383766 80.2669L1.88554 77.8109ZM-0.771445 75.9337C-0.919055 76.1736 -1.10042 76.2935 -1.31555 76.2935C-1.53042 76.2935 -1.71166 76.1736 -1.85927 75.9337C-2.00688 75.6938 -2.08068 75.3991 -2.08068 75.0495C-2.08068 74.7004 -2.00688 74.4059 -1.85927 74.166C-1.71166 73.9261 -1.53042 73.8062 -1.31555 73.8062C-1.10042 73.8062 -0.919055 73.9261 -0.771445 74.166C-0.623835 74.4059 -0.55003 74.7004 -0.55003 75.0495C-0.55003 75.3991 -0.623835 75.6938 -0.771445 75.9337ZM-0.501896 83.4582L0.114217 81.1586C-0.360703 80.8562 -0.766696 80.5433 -1.10376 80.22C-1.44057 79.8967 -1.81434 79.4535 -2.22509 78.8903L-2.32135 79.7038C-2.34702 79.9124 -2.34061 80.1184 -2.3021 80.322C-2.26359 80.5252 -2.19941 80.6998 -2.10956 80.8458L-0.501896 83.4582ZM3.24291 79.8133C3.01829 79.4483 2.74553 79.2631 2.42464 79.2576C2.10375 79.2526 1.83099 79.4326 1.60636 79.7976C1.38174 80.1627 1.26943 80.6059 1.26943 81.1273C1.26943 81.6488 1.38174 82.092 1.60636 82.457C1.76681 82.7178 2.03469 82.942 2.41001 83.1297C2.78558 83.3174 3.30388 83.4843 3.96492 83.6303C3.87507 82.5561 3.77238 81.7166 3.65686 81.1117C3.54134 80.5068 3.40336 80.074 3.24291 79.8133ZM11.5527 76.3874L13.17 73.7593C13.2598 73.6133 13.3657 73.509 13.4876 73.4464C13.6096 73.3838 13.7347 73.3734 13.8631 73.4151L14.3637 73.5872C14.0171 74.2546 13.7444 74.8595 13.5454 75.4018C13.3465 75.9441 13.1539 76.6012 12.9678 77.3729L11.5527 76.3874ZM13.5262 77.8109C13.6738 77.06 13.8743 76.3509 14.1276 75.6834C14.3813 75.016 14.6878 74.3902 15.0472 73.8062C15.612 72.8884 16.2569 72.2026 16.9822 71.7488C17.7074 71.2953 18.3845 71.1572 19.0134 71.3345C19.1225 72.3566 19.0391 73.4568 18.7631 74.6353C18.4871 75.8138 18.0668 76.8619 17.502 77.7796C17.149 78.3532 16.764 78.8513 16.3468 79.2739C15.9296 79.6961 15.49 80.0271 15.0279 80.2669L13.5262 77.8109ZM16.1831 75.9337C16.3307 76.1736 16.5121 76.2935 16.7272 76.2935C16.9421 76.2935 17.1234 76.1736 17.271 75.9337C17.4186 75.6938 17.4924 75.3991 17.4924 75.0495C17.4924 74.7004 17.4186 74.4059 17.271 74.166C17.1234 73.9261 16.9421 73.8062 16.7272 73.8062C16.5121 73.8062 16.3307 73.9261 16.1831 74.166C16.0355 74.4059 15.9617 74.7004 15.9617 75.0495C15.9617 75.3991 16.0355 75.6938 16.1831 75.9337ZM15.9136 83.4582L15.2975 81.1586C15.7724 80.8562 16.1784 80.5433 16.5155 80.22C16.8523 79.8967 17.226 79.4535 17.6368 78.8903L17.733 79.7038C17.7587 79.9124 17.7523 80.1184 17.7138 80.322C17.6753 80.5252 17.6111 80.6998 17.5213 80.8458L15.9136 83.4582ZM12.1688 79.8133C12.3934 79.4483 12.6662 79.2631 12.9871 79.2576C13.3079 79.2526 13.5807 79.4326 13.8053 79.7976C14.03 80.1627 14.1423 80.6059 14.1423 81.1273C14.1423 81.6488 14.03 82.092 13.8053 82.457C13.6449 82.7178 13.377 82.942 13.0017 83.1297C12.6261 83.3174 12.1078 83.4843 11.4468 83.6303C11.5366 82.5561 11.6393 81.7166 11.7548 81.1117C11.8704 80.5068 12.0083 80.074 12.1688 79.8133ZM32.4312 73.7593L34.0485 76.3874L32.6334 77.3729C32.4473 76.6012 32.2548 75.9441 32.0558 75.4018C31.8568 74.8595 31.5841 74.2546 31.2375 73.5872L31.7381 73.4151C31.8665 73.3734 31.9916 73.3838 32.1136 73.4464C32.2355 73.509 32.3414 73.6133 32.4312 73.7593ZM31.4736 75.6834C31.727 76.3509 31.9274 77.06 32.0751 77.8109L30.5733 80.2669C30.1112 80.0271 29.6716 79.6961 29.2544 79.2739C28.8373 78.8513 28.4522 78.3532 28.0992 77.7796C27.5344 76.8619 27.1141 75.8138 26.8381 74.6353C26.5621 73.4568 26.4787 72.3566 26.5878 71.3345C27.2167 71.1572 27.8938 71.2953 28.619 71.7488C29.3443 72.2026 29.9893 72.8884 30.554 73.8062C30.9134 74.3902 31.2199 75.016 31.4736 75.6834ZM28.874 76.2935C29.0891 76.2935 29.2705 76.1736 29.4181 75.9337C29.5657 75.6938 29.6395 75.3991 29.6395 75.0495C29.6395 74.7004 29.5657 74.4059 29.4181 74.166C29.2705 73.9261 29.0891 73.8062 28.874 73.8062C28.6591 73.8062 28.4779 73.9261 28.3302 74.166C28.1826 74.4059 28.1088 74.7004 28.1088 75.0495C28.1088 75.3991 28.1826 75.6938 28.3302 75.9337C28.4779 76.1736 28.6591 76.2935 28.874 76.2935ZM30.3037 81.1586L29.6876 83.4582L28.0799 80.8458C27.9901 80.6998 27.9259 80.5252 27.8874 80.322C27.8489 80.1184 27.8425 79.9124 27.8682 79.7038L27.9644 78.8903C28.3752 79.4535 28.7489 79.8967 29.0858 80.22C29.4228 80.5433 29.8288 80.8562 30.3037 81.1586ZM32.6142 79.2576C32.935 79.2631 33.2078 79.4483 33.4324 79.8133C33.5929 80.074 33.7309 80.5068 33.8464 81.1117C33.9619 81.7166 34.0646 82.5561 34.1544 83.6303C33.4934 83.4843 32.9751 83.3174 32.5995 83.1297C32.2242 82.942 31.9563 82.7178 31.7959 82.457C31.5713 82.092 31.4589 81.6488 31.4589 81.1273C31.4589 80.6059 31.5713 80.1627 31.7959 79.7976C32.0205 79.4326 32.2933 79.2526 32.6142 79.2576ZM41.7422 76.3874L43.3595 73.7593C43.4493 73.6133 43.5552 73.509 43.6772 73.4464C43.7991 73.3838 43.9243 73.3734 44.0526 73.4151L44.5532 73.5872C44.2066 74.2546 43.9339 74.8595 43.7349 75.4018C43.536 75.9441 43.3434 76.6012 43.1573 77.3729L41.7422 76.3874ZM43.7157 77.8109C43.8633 77.06 44.0638 76.3509 44.3172 75.6834C44.5708 75.016 44.8773 74.3902 45.2367 73.8062C45.8015 72.8884 46.4465 72.2026 47.1717 71.7488C47.8969 71.2953 48.574 71.1572 49.2029 71.3345C49.312 72.3566 49.2286 73.4568 48.9526 74.6353C48.6767 75.8138 48.2563 76.8619 47.6915 77.7796C47.3385 78.3532 46.9535 78.8513 46.5363 79.2739C46.1192 79.6961 45.6795 80.0271 45.2174 80.2669L43.7157 77.8109ZM46.3727 75.9337C46.5203 76.1736 46.7016 76.2935 46.9168 76.2935C47.1316 76.2935 47.3129 76.1736 47.4605 75.9337C47.6081 75.6938 47.6819 75.3991 47.6819 75.0495C47.6819 74.7004 47.6081 74.4059 47.4605 74.166C47.3129 73.9261 47.1316 73.8062 46.9168 73.8062C46.7016 73.8062 46.5203 73.9261 46.3727 74.166C46.225 74.4059 46.1512 74.7004 46.1512 75.0495C46.1512 75.3991 46.225 75.6938 46.3727 75.9337ZM46.1031 83.4582L45.487 81.1586C45.9619 80.8562 46.3679 80.5433 46.705 80.22C47.0418 79.8967 47.4156 79.4535 47.8263 78.8903L47.9226 79.7038C47.9482 79.9124 47.9418 80.1184 47.9033 80.322C47.8648 80.5252 47.8006 80.6998 47.7108 80.8458L46.1031 83.4582ZM42.3583 79.8133C42.5829 79.4483 42.8557 79.2631 43.1766 79.2576C43.4975 79.2526 43.7702 79.4326 43.9948 79.7976C44.2195 80.1627 44.3318 80.6059 44.3318 81.1273C44.3318 81.6488 44.2195 82.092 43.9948 82.457C43.8344 82.7178 43.5665 82.942 43.1912 83.1297C42.8156 83.3174 42.2973 83.4843 41.6363 83.6303C41.7261 82.5561 41.8288 81.7166 41.9443 81.1117C42.0599 80.5068 42.1979 80.074 42.3583 79.8133ZM62.621 73.7593L64.2383 76.3874L62.8232 77.3729C62.6371 76.6012 62.4445 75.9441 62.2456 75.4018C62.0466 74.8595 61.7739 74.2546 61.4273 73.5872L61.9279 73.4151C62.0563 73.3734 62.1814 73.3838 62.3033 73.4464C62.4253 73.509 62.5312 73.6133 62.621 73.7593ZM61.6633 75.6834C61.9167 76.3509 62.1172 77.06 62.2648 77.8109L60.7631 80.2669C60.301 80.0271 59.8613 79.6961 59.4442 79.2739C59.027 78.8513 58.642 78.3532 58.289 77.7796C57.7242 76.8619 57.3038 75.8138 57.0279 74.6353C56.7519 73.4568 56.6685 72.3566 56.7776 71.3345C57.4065 71.1572 58.0836 71.2953 58.8088 71.7488C59.534 72.2026 60.179 72.8884 60.7438 73.8062C61.1032 74.3902 61.4097 75.016 61.6633 75.6834ZM59.0637 76.2935C59.2789 76.2935 59.4602 76.1736 59.6078 75.9337C59.7554 75.6938 59.8293 75.3991 59.8293 75.0495C59.8293 74.7004 59.7554 74.4059 59.6078 74.166C59.4602 73.9261 59.2789 73.8062 59.0637 73.8062C58.8489 73.8062 58.6676 73.9261 58.52 74.166C58.3724 74.4059 58.2986 74.7004 58.2986 75.0495C58.2986 75.3991 58.3724 75.6938 58.52 75.9337C58.6676 76.1736 58.8489 76.2935 59.0637 76.2935ZM60.4935 81.1586L59.8774 83.4582L58.2697 80.8458C58.1799 80.6998 58.1157 80.5252 58.0772 80.322C58.0387 80.1184 58.0323 79.9124 58.0579 79.7038L58.1542 78.8903C58.5649 79.4535 58.9387 79.8967 59.2755 80.22C59.6126 80.5433 60.0186 80.8562 60.4935 81.1586ZM62.8039 79.2576C63.1248 79.2631 63.3976 79.4483 63.6222 79.8133C63.7826 80.074 63.9206 80.5068 64.0361 81.1117C64.1517 81.7166 64.2544 82.5561 64.3442 83.6303C63.6832 83.4843 63.1649 83.3174 62.7893 83.1297C62.414 82.942 62.1461 82.7178 61.9856 82.457C61.761 82.092 61.6487 81.6488 61.6487 81.1273C61.6487 80.6059 61.761 80.1627 61.9856 79.7976C62.2103 79.4326 62.483 79.2526 62.8039 79.2576ZM71.9317 76.3874L73.549 73.7593C73.6389 73.6133 73.7447 73.509 73.8667 73.4464C73.9886 73.3838 74.1138 73.3734 74.2421 73.4151L74.7427 73.5872C74.3962 74.2546 74.1234 74.8595 73.9244 75.4018C73.7255 75.9441 73.533 76.6012 73.3468 77.3729L71.9317 76.3874ZM73.9052 77.8109C74.0528 77.06 74.2533 76.3509 74.5067 75.6834C74.7603 75.016 75.0668 74.3902 75.4262 73.8062C75.991 72.8884 76.636 72.2026 77.3612 71.7488C78.0864 71.2953 78.7635 71.1572 79.3924 71.3345C79.5015 72.3566 79.4181 73.4568 79.1422 74.6353C78.8662 75.8138 78.4458 76.8619 77.881 77.7796C77.5281 78.3532 77.143 78.8513 76.7258 79.2739C76.3087 79.6961 75.869 80.0271 75.407 80.2669L73.9052 77.8109ZM76.5622 75.9337C76.7098 76.1736 76.8912 76.2935 77.1063 76.2935C77.3212 76.2935 77.5024 76.1736 77.65 75.9337C77.7976 75.6938 77.8714 75.3991 77.8714 75.0495C77.8714 74.7004 77.7976 74.4059 77.65 74.166C77.5024 73.9261 77.3212 73.8062 77.1063 73.8062C76.8912 73.8062 76.7098 73.9261 76.5622 74.166C76.4146 74.4059 76.3408 74.7004 76.3408 75.0495C76.3408 75.3991 76.4146 75.6938 76.5622 75.9337ZM76.2926 83.4582L75.6765 81.1586C76.1514 80.8562 76.5574 80.5433 76.8945 80.22C77.2313 79.8967 77.6051 79.4535 78.0158 78.8903L78.1121 79.7038C78.1378 79.9124 78.1313 80.1184 78.0928 80.322C78.0543 80.5252 77.9902 80.6998 77.9003 80.8458L76.2926 83.4582ZM72.5478 79.8133C72.7724 79.4483 73.0452 79.2631 73.3661 79.2576C73.687 79.2526 73.9597 79.4326 74.1844 79.7976C74.409 80.1627 74.5213 80.6059 74.5213 81.1273C74.5213 81.6488 74.409 82.092 74.1844 82.457C74.0239 82.7178 73.756 82.942 73.3807 83.1297C73.0052 83.3174 72.4868 83.4843 71.8258 83.6303C71.9157 82.5561 72.0183 81.7166 72.1339 81.1117C72.2494 80.5068 72.3874 80.074 72.5478 79.8133ZM-8.21101 128.342L-9.82831 130.97L-8.41318 131.956C-8.22706 131.184 -8.03452 130.527 -7.83557 129.985C-7.63662 129.442 -7.36386 128.838 -7.0173 128.17L-7.51789 127.998C-7.64624 127.956 -7.77139 127.967 -7.89333 128.029C-8.01527 128.092 -8.12116 128.196 -8.21101 128.342ZM-7.25334 130.266C-7.50672 130.934 -7.70721 131.643 -7.85482 132.394L-6.35305 134.85C-5.89097 134.61 -5.45134 134.279 -5.03418 133.857C-4.61702 133.434 -4.23195 132.936 -3.87897 132.363C-3.3142 131.445 -2.89384 130.397 -2.61787 129.218C-2.3419 128.04 -2.25847 126.94 -2.36757 125.917C-2.99652 125.74 -3.6736 125.878 -4.39882 126.332C-5.12403 126.786 -5.76903 127.471 -6.3338 128.389C-6.6932 128.973 -6.99971 129.599 -7.25334 130.266ZM-4.65374 130.876C-4.86886 130.876 -5.05023 130.757 -5.19784 130.517C-5.34545 130.277 -5.41925 129.982 -5.41925 129.633C-5.41925 129.283 -5.34545 128.989 -5.19784 128.749C-5.05023 128.509 -4.86886 128.389 -4.65374 128.389C-4.43887 128.389 -4.25763 128.509 -4.11002 128.749C-3.96241 128.989 -3.8886 129.283 -3.8886 129.633C-3.8886 129.982 -3.96241 130.277 -4.11002 130.517C-4.25763 130.757 -4.43887 130.876 -4.65374 130.876ZM-6.0835 135.742L-5.46739 138.041L-3.85972 135.429C-3.76987 135.283 -3.70569 135.108 -3.66718 134.905C-3.62868 134.701 -3.62226 134.495 -3.64793 134.287L-3.7442 133.473C-4.15494 134.036 -4.52872 134.48 -4.86552 134.803C-5.20259 135.126 -5.60858 135.439 -6.0835 135.742ZM-8.39392 133.841C-8.71481 133.846 -8.98757 134.031 -9.2122 134.396C-9.37264 134.657 -9.51063 135.09 -9.62615 135.695C-9.74167 136.3 -9.84435 137.139 -9.9342 138.213C-9.27317 138.067 -8.75486 137.9 -8.37929 137.713C-8.00397 137.525 -7.73609 137.301 -7.57565 137.04C-7.35102 136.675 -7.23871 136.232 -7.23871 135.71C-7.23871 135.189 -7.35102 134.746 -7.57565 134.381C-7.80027 134.016 -8.07303 133.836 -8.39392 133.841ZM11.0504 128.342L12.6677 130.97L11.2525 131.956C11.0664 131.184 10.8739 130.527 10.6749 129.985C10.476 129.442 10.2032 128.838 9.85665 128.17L10.3572 127.998C10.4856 127.956 10.6107 127.967 10.7327 128.029C10.8546 128.092 10.9605 128.196 11.0504 128.342ZM10.0927 130.266C10.3461 130.934 10.5466 131.643 10.6942 132.394L9.19241 134.85C8.73032 134.61 8.2907 134.279 7.87354 133.857C7.45638 133.434 7.07131 132.936 6.71833 132.363C6.15356 131.445 5.73319 130.397 5.45722 129.218C5.18126 128.04 5.09782 126.94 5.20693 125.917C5.83588 125.74 6.51296 125.878 7.23817 126.332C7.96339 126.786 8.60838 127.471 9.17315 128.389C9.53255 128.973 9.83907 129.599 10.0927 130.266ZM7.49309 130.876C7.70822 130.876 7.88958 130.757 8.0372 130.517C8.1848 130.277 8.25861 129.982 8.25861 129.633C8.25861 129.283 8.1848 128.989 8.0372 128.749C7.88958 128.509 7.70822 128.389 7.49309 128.389C7.27822 128.389 7.09698 128.509 6.94937 128.749C6.80176 128.989 6.72795 129.283 6.72795 129.633C6.72795 129.982 6.80176 130.277 6.94937 130.517C7.09698 130.757 7.27822 130.876 7.49309 130.876ZM8.92286 135.742L8.30674 138.041L6.69908 135.429C6.60922 135.283 6.54505 135.108 6.50654 134.905C6.46803 134.701 6.46161 134.495 6.48729 134.287L6.58355 133.473C6.9943 134.036 7.36807 134.48 7.70488 134.803C8.04194 135.126 8.44794 135.439 8.92286 135.742ZM11.2333 133.841C11.5542 133.846 11.8269 134.031 12.0516 134.396C12.212 134.657 12.35 135.09 12.4655 135.695C12.581 136.3 12.6837 137.139 12.7736 138.213C12.1125 138.067 11.5942 137.9 11.2186 137.713C10.8433 137.525 10.5754 137.301 10.415 137.04C10.1904 136.675 10.0781 136.232 10.0781 135.71C10.0781 135.189 10.1904 134.746 10.415 134.381C10.6396 134.016 10.9124 133.836 11.2333 133.841ZM20.3613 130.97L21.9786 128.342C22.0685 128.196 22.1743 128.092 22.2963 128.029C22.4182 127.967 22.5434 127.956 22.6717 127.998L23.1723 128.17C22.8258 128.838 22.553 129.442 22.354 129.985C22.1551 130.527 21.9626 131.184 21.7764 131.956L20.3613 130.97ZM22.3348 132.394C22.4824 131.643 22.6829 130.934 22.9363 130.266C23.1899 129.599 23.4964 128.973 23.8558 128.389C24.4206 127.471 25.0656 126.786 25.7908 126.332C26.516 125.878 27.1931 125.74 27.822 125.917C27.9312 126.94 27.8477 128.04 27.5718 129.218C27.2958 130.397 26.8754 131.445 26.3106 132.363C25.9577 132.936 25.5726 133.434 25.1554 133.857C24.7383 134.279 24.2987 134.61 23.8366 134.85L22.3348 132.394ZM24.9918 130.517C25.1394 130.757 25.3208 130.876 25.5359 130.876C25.7508 130.876 25.932 130.757 26.0796 130.517C26.2272 130.277 26.301 129.982 26.301 129.633C26.301 129.283 26.2272 128.989 26.0796 128.749C25.932 128.509 25.7508 128.389 25.5359 128.389C25.3208 128.389 25.1394 128.509 24.9918 128.749C24.8442 128.989 24.7704 129.283 24.7704 129.633C24.7704 129.982 24.8442 130.277 24.9918 130.517ZM24.7222 138.041L24.1061 135.742C24.581 135.439 24.987 135.126 25.3241 134.803C25.6609 134.48 26.0347 134.036 26.4454 133.473L26.5417 134.287C26.5674 134.495 26.5609 134.701 26.5224 134.905C26.4839 135.108 26.4198 135.283 26.3299 135.429L24.7222 138.041ZM20.9774 134.396C21.202 134.031 21.4748 133.846 21.7957 133.841C22.1166 133.836 22.3893 134.016 22.614 134.381C22.8386 134.746 22.9509 135.189 22.9509 135.71C22.9509 136.232 22.8386 136.675 22.614 137.04C22.4535 137.301 22.1856 137.525 21.8103 137.713C21.4348 137.9 20.9165 138.067 20.2554 138.213C20.3453 137.139 20.448 136.3 20.5635 135.695C20.679 135.09 20.817 134.657 20.9774 134.396ZM41.2399 128.342L42.8572 130.97L41.4421 131.956C41.2559 131.184 41.0634 130.527 40.8644 129.985C40.6655 129.442 40.3927 128.838 40.0462 128.17L40.5468 127.998C40.6751 127.956 40.8003 127.967 40.9222 128.029C41.0441 128.092 41.15 128.196 41.2399 128.342ZM40.2822 130.266C40.5356 130.934 40.7361 131.643 40.8837 132.394L39.3819 134.85C38.9198 134.61 38.4802 134.279 38.0631 133.857C37.6459 133.434 37.2608 132.936 36.9078 132.363C36.3431 131.445 35.9227 130.397 35.6467 129.218C35.3708 128.04 35.2873 126.94 35.3964 125.917C36.0254 125.74 36.7025 125.878 37.4277 126.332C38.1529 126.786 38.7979 127.471 39.3627 128.389C39.7221 128.973 40.0286 129.599 40.2822 130.266ZM37.6826 130.876C37.8977 130.876 38.0791 130.757 38.2267 130.517C38.3743 130.277 38.4481 129.982 38.4481 129.633C38.4481 129.283 38.3743 128.989 38.2267 128.749C38.0791 128.509 37.8977 128.389 37.6826 128.389C37.4677 128.389 37.2865 128.509 37.1389 128.749C36.9913 128.989 36.9175 129.283 36.9175 129.633C36.9175 129.982 36.9913 130.277 37.1389 130.517C37.2865 130.757 37.4677 130.876 37.6826 130.876ZM39.1124 135.742L38.4963 138.041L36.8886 135.429C36.7987 135.283 36.7346 135.108 36.6961 134.905C36.6576 134.701 36.6511 134.495 36.6768 134.287L36.7731 133.473C37.1838 134.036 37.5576 134.48 37.8944 134.803C38.2315 135.126 38.6375 135.439 39.1124 135.742ZM41.4228 133.841C41.7437 133.846 42.0164 134.031 42.2411 134.396C42.4015 134.657 42.5395 135.09 42.655 135.695C42.7705 136.3 42.8732 137.139 42.9631 138.213C42.302 138.067 41.7837 137.9 41.4082 137.713C41.0328 137.525 40.765 137.301 40.6045 137.04C40.3799 136.675 40.2676 136.232 40.2676 135.71C40.2676 135.189 40.3799 134.746 40.6045 134.381C40.8291 134.016 41.1019 133.836 41.4228 133.841ZM50.5508 130.97L52.1681 128.342C52.258 128.196 52.3639 128.092 52.4858 128.029C52.6077 127.967 52.7329 127.956 52.8612 127.998L53.3618 128.17C53.0153 128.838 52.7425 129.442 52.5436 129.985C52.3446 130.527 52.1521 131.184 51.966 131.956L50.5508 130.97ZM52.5243 132.394C52.6719 131.643 52.8724 130.934 53.1258 130.266C53.3794 129.599 53.6859 128.973 54.0453 128.389C54.6101 127.471 55.2551 126.786 55.9803 126.332C56.7055 125.878 57.3826 125.74 58.0116 125.917C58.1207 126.94 58.0372 128.04 57.7613 129.218C57.4853 130.397 57.0649 131.445 56.5002 132.363C56.1472 132.936 55.7621 133.434 55.3449 133.857C54.9278 134.279 54.4882 134.61 54.0261 134.85L52.5243 132.394ZM55.1813 130.517C55.3289 130.757 55.5103 130.876 55.7254 130.876C55.9403 130.876 56.1215 130.757 56.2691 130.517C56.4167 130.277 56.4905 129.982 56.4905 129.633C56.4905 129.283 56.4167 128.989 56.2691 128.749C56.1215 128.509 55.9403 128.389 55.7254 128.389C55.5103 128.389 55.3289 128.509 55.1813 128.749C55.0337 128.989 54.9599 129.283 54.9599 129.633C54.9599 129.982 55.0337 130.277 55.1813 130.517ZM54.9117 138.041L54.2956 135.742C54.7706 135.439 55.1765 135.126 55.5136 134.803C55.8504 134.48 56.2242 134.036 56.6349 133.473L56.7312 134.287C56.7569 134.495 56.7505 134.701 56.712 134.905C56.6734 135.108 56.6093 135.283 56.5194 135.429L54.9117 138.041ZM51.1669 134.396C51.3916 134.031 51.6643 133.846 51.9852 133.841C52.3061 133.836 52.5789 134.016 52.8035 134.381C53.0281 134.746 53.1404 135.189 53.1404 135.71C53.1404 136.232 53.0281 136.675 52.8035 137.04C52.643 137.301 52.3752 137.525 51.9998 137.713C51.6243 137.9 51.106 138.067 50.4449 138.213C50.5348 137.139 50.6375 136.3 50.753 135.695C50.8685 135.09 51.0065 134.657 51.1669 134.396ZM71.4294 128.342L73.0467 130.97L71.6316 131.956C71.4454 131.184 71.2529 130.527 71.054 129.985C70.855 129.442 70.5823 128.838 70.2357 128.17L70.7363 127.998C70.8646 127.956 70.9898 127.967 71.1117 128.029C71.2337 128.092 71.3396 128.196 71.4294 128.342ZM70.4717 130.266C70.7251 130.934 70.9256 131.643 71.0732 132.394L69.5714 134.85C69.1094 134.61 68.6697 134.279 68.2526 133.857C67.8354 133.434 67.4503 132.936 67.0974 132.363C66.5326 131.445 66.1122 130.397 65.8363 129.218C65.5603 128.04 65.4769 126.94 65.586 125.917C66.2149 125.74 66.892 125.878 67.6172 126.332C68.3424 126.786 68.9874 127.471 69.5522 128.389C69.9116 128.973 70.2181 129.599 70.4717 130.266ZM67.8721 130.876C68.0872 130.876 68.2686 130.757 68.4162 130.517C68.5638 130.277 68.6376 129.982 68.6376 129.633C68.6376 129.283 68.5638 128.989 68.4162 128.749C68.2686 128.509 68.0872 128.389 67.8721 128.389C67.6573 128.389 67.476 128.509 67.3284 128.749C67.1808 128.989 67.107 129.283 67.107 129.633C67.107 129.982 67.1808 130.277 67.3284 130.517C67.476 130.757 67.6573 130.876 67.8721 130.876ZM69.3019 135.742L68.6858 138.041L67.0781 135.429C66.9883 135.283 66.9241 135.108 66.8856 134.905C66.8471 134.701 66.8407 134.495 66.8663 134.287L66.9626 133.473C67.3733 134.036 67.7471 134.48 68.0839 134.803C68.421 135.126 68.827 135.439 69.3019 135.742ZM71.6123 133.841C71.9332 133.846 72.206 134.031 72.4306 134.396C72.591 134.657 72.729 135.09 72.8445 135.695C72.9601 136.3 73.0627 137.139 73.1526 138.213C72.4916 138.067 71.9733 137.9 71.5977 137.713C71.2224 137.525 70.9545 137.301 70.794 137.04C70.5694 136.675 70.4571 136.232 70.4571 135.71C70.4571 135.189 70.5694 134.746 70.794 134.381C71.0187 134.016 71.2914 133.836 71.6123 133.841ZM3.85903 112.807L2.24173 110.179C2.15188 110.033 2.04599 109.928 1.92405 109.866C1.80211 109.803 1.67696 109.793 1.5486 109.835L1.04801 110.007C1.39458 110.674 1.66733 111.279 1.86629 111.821C2.06524 112.364 2.25777 113.021 2.44389 113.792L3.85903 112.807ZM1.88554 114.23C1.73793 113.479 1.53744 112.77 1.28406 112.103C1.03043 111.435 0.723911 110.81 0.364512 110.226C-0.200257 109.308 -0.84525 108.622 -1.57047 108.168C-2.29568 107.715 -2.97276 107.577 -3.60171 107.754C-3.71082 108.776 -3.62738 109.876 -3.35142 111.055C-3.07545 112.233 -2.65508 113.281 -2.09031 114.199C-1.73733 114.773 -1.35226 115.271 -0.9351 115.693C-0.517941 116.115 -0.0783186 116.447 0.383766 116.686L1.88554 114.23ZM-0.771445 112.353C-0.919055 112.593 -1.10042 112.713 -1.31555 112.713C-1.53042 112.713 -1.71166 112.593 -1.85927 112.353C-2.00688 112.113 -2.08068 111.819 -2.08068 111.469C-2.08068 111.12 -2.00688 110.825 -1.85927 110.585C-1.71166 110.346 -1.53042 110.226 -1.31555 110.226C-1.10042 110.226 -0.919055 110.346 -0.771445 110.585C-0.623835 110.825 -0.55003 111.12 -0.55003 111.469C-0.55003 111.819 -0.623835 112.113 -0.771445 112.353ZM-0.501896 119.878L0.114217 117.578C-0.360703 117.276 -0.766696 116.963 -1.10376 116.639C-1.44057 116.316 -1.81434 115.873 -2.22509 115.31L-2.32135 116.123C-2.34702 116.332 -2.34061 116.538 -2.3021 116.741C-2.26359 116.945 -2.19941 117.119 -2.10956 117.265L-0.501896 119.878ZM3.24291 116.233C3.01829 115.868 2.74553 115.682 2.42464 115.677C2.10375 115.672 1.83099 115.852 1.60636 116.217C1.38174 116.582 1.26943 117.025 1.26943 117.547C1.26943 118.068 1.38174 118.511 1.60636 118.876C1.76681 119.137 2.03469 119.361 2.41001 119.549C2.78558 119.737 3.30388 119.904 3.96492 120.05C3.87507 118.976 3.77238 118.136 3.65686 117.531C3.54134 116.926 3.40336 116.493 3.24291 116.233ZM11.5527 112.807L13.17 110.179C13.2598 110.033 13.3657 109.928 13.4876 109.866C13.6096 109.803 13.7347 109.793 13.8631 109.835L14.3637 110.007C14.0171 110.674 13.7444 111.279 13.5454 111.821C13.3465 112.364 13.1539 113.021 12.9678 113.792L11.5527 112.807ZM13.5262 114.23C13.6738 113.479 13.8743 112.77 14.1276 112.103C14.3813 111.435 14.6878 110.81 15.0472 110.226C15.612 109.308 16.2569 108.622 16.9822 108.168C17.7074 107.715 18.3845 107.577 19.0134 107.754C19.1225 108.776 19.0391 109.876 18.7631 111.055C18.4871 112.233 18.0668 113.281 17.502 114.199C17.149 114.773 16.764 115.271 16.3468 115.693C15.9296 116.115 15.49 116.447 15.0279 116.686L13.5262 114.23ZM16.1831 112.353C16.3307 112.593 16.5121 112.713 16.7272 112.713C16.9421 112.713 17.1234 112.593 17.271 112.353C17.4186 112.113 17.4924 111.819 17.4924 111.469C17.4924 111.12 17.4186 110.825 17.271 110.585C17.1234 110.346 16.9421 110.226 16.7272 110.226C16.5121 110.226 16.3307 110.346 16.1831 110.585C16.0355 110.825 15.9617 111.12 15.9617 111.469C15.9617 111.819 16.0355 112.113 16.1831 112.353ZM15.9136 119.878L15.2975 117.578C15.7724 117.276 16.1784 116.963 16.5155 116.639C16.8523 116.316 17.226 115.873 17.6368 115.31L17.733 116.123C17.7587 116.332 17.7523 116.538 17.7138 116.741C17.6753 116.945 17.6111 117.119 17.5213 117.265L15.9136 119.878ZM12.1688 116.233C12.3934 115.868 12.6662 115.682 12.9871 115.677C13.3079 115.672 13.5807 115.852 13.8053 116.217C14.03 116.582 14.1423 117.025 14.1423 117.547C14.1423 118.068 14.03 118.511 13.8053 118.876C13.6449 119.137 13.377 119.361 13.0017 119.549C12.6261 119.737 12.1078 119.904 11.4468 120.05C11.5366 118.976 11.6393 118.136 11.7548 117.531C11.8704 116.926 12.0083 116.493 12.1688 116.233ZM32.4312 110.179L34.0485 112.807L32.6334 113.792C32.4473 113.021 32.2548 112.364 32.0558 111.821C31.8568 111.279 31.5841 110.674 31.2375 110.007L31.7381 109.835C31.8665 109.793 31.9916 109.803 32.1136 109.866C32.2355 109.928 32.3414 110.033 32.4312 110.179ZM31.4736 112.103C31.727 112.77 31.9274 113.479 32.0751 114.23L30.5733 116.686C30.1112 116.447 29.6716 116.115 29.2544 115.693C28.8373 115.271 28.4522 114.773 28.0992 114.199C27.5344 113.281 27.1141 112.233 26.8381 111.055C26.5621 109.876 26.4787 108.776 26.5878 107.754C27.2167 107.577 27.8938 107.715 28.619 108.168C29.3443 108.622 29.9893 109.308 30.554 110.226C30.9134 110.81 31.2199 111.435 31.4736 112.103ZM28.874 112.713C29.0891 112.713 29.2705 112.593 29.4181 112.353C29.5657 112.113 29.6395 111.819 29.6395 111.469C29.6395 111.12 29.5657 110.825 29.4181 110.585C29.2705 110.346 29.0891 110.226 28.874 110.226C28.6591 110.226 28.4779 110.346 28.3302 110.585C28.1826 110.825 28.1088 111.12 28.1088 111.469C28.1088 111.819 28.1826 112.113 28.3302 112.353C28.4779 112.593 28.6591 112.713 28.874 112.713ZM30.3037 117.578L29.6876 119.878L28.0799 117.265C27.9901 117.119 27.9259 116.945 27.8874 116.741C27.8489 116.538 27.8425 116.332 27.8682 116.123L27.9644 115.31C28.3752 115.873 28.7489 116.316 29.0858 116.639C29.4228 116.963 29.8288 117.276 30.3037 117.578ZM32.6142 115.677C32.935 115.682 33.2078 115.868 33.4324 116.233C33.5929 116.493 33.7309 116.926 33.8464 117.531C33.9619 118.136 34.0646 118.976 34.1544 120.05C33.4934 119.904 32.9751 119.737 32.5995 119.549C32.2242 119.361 31.9563 119.137 31.7959 118.876C31.5713 118.511 31.4589 118.068 31.4589 117.547C31.4589 117.025 31.5713 116.582 31.7959 116.217C32.0205 115.852 32.2933 115.672 32.6142 115.677ZM41.7422 112.807L43.3595 110.179C43.4493 110.033 43.5552 109.928 43.6772 109.866C43.7991 109.803 43.9243 109.793 44.0526 109.835L44.5532 110.007C44.2066 110.674 43.9339 111.279 43.7349 111.821C43.536 112.364 43.3434 113.021 43.1573 113.792L41.7422 112.807ZM43.7157 114.23C43.8633 113.479 44.0638 112.77 44.3172 112.103C44.5708 111.435 44.8773 110.81 45.2367 110.226C45.8015 109.308 46.4465 108.622 47.1717 108.168C47.8969 107.715 48.574 107.577 49.2029 107.754C49.312 108.776 49.2286 109.876 48.9526 111.055C48.6767 112.233 48.2563 113.281 47.6915 114.199C47.3385 114.773 46.9535 115.271 46.5363 115.693C46.1192 116.115 45.6795 116.447 45.2174 116.686L43.7157 114.23ZM46.3727 112.353C46.5203 112.593 46.7016 112.713 46.9168 112.713C47.1316 112.713 47.3129 112.593 47.4605 112.353C47.6081 112.113 47.6819 111.819 47.6819 111.469C47.6819 111.12 47.6081 110.825 47.4605 110.585C47.3129 110.346 47.1316 110.226 46.9168 110.226C46.7016 110.226 46.5203 110.346 46.3727 110.585C46.225 110.825 46.1512 111.12 46.1512 111.469C46.1512 111.819 46.225 112.113 46.3727 112.353ZM46.1031 119.878L45.487 117.578C45.9619 117.276 46.3679 116.963 46.705 116.639C47.0418 116.316 47.4156 115.873 47.8263 115.31L47.9226 116.123C47.9482 116.332 47.9418 116.538 47.9033 116.741C47.8648 116.945 47.8006 117.119 47.7108 117.265L46.1031 119.878ZM42.3583 116.233C42.5829 115.868 42.8557 115.682 43.1766 115.677C43.4975 115.672 43.7702 115.852 43.9948 116.217C44.2195 116.582 44.3318 117.025 44.3318 117.547C44.3318 118.068 44.2195 118.511 43.9948 118.876C43.8344 119.137 43.5665 119.361 43.1912 119.549C42.8156 119.737 42.2973 119.904 41.6363 120.05C41.7261 118.976 41.8288 118.136 41.9443 117.531C42.0599 116.926 42.1979 116.493 42.3583 116.233ZM62.621 110.179L64.2383 112.807L62.8232 113.792C62.6371 113.021 62.4445 112.364 62.2456 111.821C62.0466 111.279 61.7739 110.674 61.4273 110.007L61.9279 109.835C62.0563 109.793 62.1814 109.803 62.3033 109.866C62.4253 109.928 62.5312 110.033 62.621 110.179ZM61.6633 112.103C61.9167 112.77 62.1172 113.479 62.2648 114.23L60.7631 116.686C60.301 116.447 59.8613 116.115 59.4442 115.693C59.027 115.271 58.642 114.773 58.289 114.199C57.7242 113.281 57.3038 112.233 57.0279 111.055C56.7519 109.876 56.6685 108.776 56.7776 107.754C57.4065 107.577 58.0836 107.715 58.8088 108.168C59.534 108.622 60.179 109.308 60.7438 110.226C61.1032 110.81 61.4097 111.435 61.6633 112.103ZM59.0637 112.713C59.2789 112.713 59.4602 112.593 59.6078 112.353C59.7554 112.113 59.8293 111.819 59.8293 111.469C59.8293 111.12 59.7554 110.825 59.6078 110.585C59.4602 110.346 59.2789 110.226 59.0637 110.226C58.8489 110.226 58.6676 110.346 58.52 110.585C58.3724 110.825 58.2986 111.12 58.2986 111.469C58.2986 111.819 58.3724 112.113 58.52 112.353C58.6676 112.593 58.8489 112.713 59.0637 112.713ZM60.4935 117.578L59.8774 119.878L58.2697 117.265C58.1799 117.119 58.1157 116.945 58.0772 116.741C58.0387 116.538 58.0323 116.332 58.0579 116.123L58.1542 115.31C58.5649 115.873 58.9387 116.316 59.2755 116.639C59.6126 116.963 60.0186 117.276 60.4935 117.578ZM62.8039 115.677C63.1248 115.682 63.3976 115.868 63.6222 116.233C63.7826 116.493 63.9206 116.926 64.0361 117.531C64.1517 118.136 64.2544 118.976 64.3442 120.05C63.6832 119.904 63.1649 119.737 62.7893 119.549C62.414 119.361 62.1461 119.137 61.9856 118.876C61.761 118.511 61.6487 118.068 61.6487 117.547C61.6487 117.025 61.761 116.582 61.9856 116.217C62.2103 115.852 62.483 115.672 62.8039 115.677ZM71.9317 112.807L73.549 110.179C73.6389 110.033 73.7447 109.928 73.8667 109.866C73.9886 109.803 74.1138 109.793 74.2421 109.835L74.7427 110.007C74.3962 110.674 74.1234 111.279 73.9244 111.821C73.7255 112.364 73.533 113.021 73.3468 113.792L71.9317 112.807ZM73.9052 114.23C74.0528 113.479 74.2533 112.77 74.5067 112.103C74.7603 111.435 75.0668 110.81 75.4262 110.226C75.991 109.308 76.636 108.622 77.3612 108.168C78.0864 107.715 78.7635 107.577 79.3924 107.754C79.5015 108.776 79.4181 109.876 79.1422 111.055C78.8662 112.233 78.4458 113.281 77.881 114.199C77.5281 114.773 77.143 115.271 76.7258 115.693C76.3087 116.115 75.869 116.447 75.407 116.686L73.9052 114.23ZM76.5622 112.353C76.7098 112.593 76.8912 112.713 77.1063 112.713C77.3212 112.713 77.5024 112.593 77.65 112.353C77.7976 112.113 77.8714 111.819 77.8714 111.469C77.8714 111.12 77.7976 110.825 77.65 110.585C77.5024 110.346 77.3212 110.226 77.1063 110.226C76.8912 110.226 76.7098 110.346 76.5622 110.585C76.4146 110.825 76.3408 111.12 76.3408 111.469C76.3408 111.819 76.4146 112.113 76.5622 112.353ZM76.2926 119.878L75.6765 117.578C76.1514 117.276 76.5574 116.963 76.8945 116.639C77.2313 116.316 77.6051 115.873 78.0158 115.31L78.1121 116.123C78.1378 116.332 78.1313 116.538 78.0928 116.741C78.0543 116.945 77.9902 117.119 77.9003 117.265L76.2926 119.878ZM72.5478 116.233C72.7724 115.868 73.0452 115.682 73.3661 115.677C73.687 115.672 73.9597 115.852 74.1844 116.217C74.409 116.582 74.5213 117.025 74.5213 117.547C74.5213 118.068 74.409 118.511 74.1844 118.876C74.0239 119.137 73.756 119.361 73.3807 119.549C73.0052 119.737 72.4868 119.904 71.8258 120.05C71.9157 118.976 72.0183 118.136 72.1339 117.531C72.2494 116.926 72.3874 116.493 72.5478 116.233Z" fill="url(#paint2_linear_127_1850)"/>
</g>
</g>
</g>
</g>
<defs>
<linearGradient id="paint0_linear_127_1850" x1="16" y1="0" x2="16" y2="32" gradientUnits="userSpaceOnUse">
<stop stop-color="#7958FF"/>
<stop offset="1" stop-color="#5531EA"/>
</linearGradient>
<linearGradient id="paint1_linear_127_1850" x1="6.6087" y1="35.6344" x2="30.9624" y2="-0.962935" gradientUnits="userSpaceOnUse">
<stop stop-color="#205EE7"/>
<stop offset="1" stop-color="#21AFFF"/>
</linearGradient>
<linearGradient id="paint2_linear_127_1850" x1="32.3962" y1="-1.53174" x2="32.3962" y2="118.935" gradientUnits="userSpaceOnUse">
<stop stop-color="white"/>
<stop offset="1" stop-color="white" stop-opacity="0"/>
</linearGradient>
</defs>
</svg>
