<svg width="57" height="57" viewBox="0 0 57 57" fill="none" xmlns="http://www.w3.org/2000/svg">
<g id="vuesax/bulk/document-text">
<g id="vuesax/bulk/document-text_2">
<g id="document-text">
<path id="Vector" d="M48.6875 24.2012H41.8238C36.195 24.2012 31.6113 19.6175 31.6113 13.9887V7.125C31.6113 5.81875 30.5425 4.75 29.2362 4.75H19.1662C11.8512 4.75 5.9375 9.5 5.9375 17.9788V39.0213C5.9375 47.5 11.8512 52.25 19.1662 52.25H37.8337C45.1488 52.25 51.0625 47.5 51.0625 39.0213V26.5762C51.0625 25.27 49.9938 24.2012 48.6875 24.2012Z" fill="url(#paint0_linear_84_3298)"/>
<path id="Vector_2" d="M37.525 5.24892C36.5512 4.27517 34.865 4.94017 34.865 6.29392V14.5827C34.865 18.0502 37.81 20.9239 41.3962 20.9239C43.6525 20.9477 46.7875 20.9477 49.4712 20.9477C50.825 20.9477 51.5375 19.3564 50.5875 18.4064C47.1675 14.9627 41.04 8.76392 37.525 5.24892Z" fill="url(#paint1_linear_84_3298)"/>
<path id="Vector_3" d="M32.0625 32.6562H17.8125C16.8388 32.6562 16.0312 31.8487 16.0312 30.875C16.0312 29.9012 16.8388 29.0938 17.8125 29.0938H32.0625C33.0362 29.0938 33.8438 29.9012 33.8438 30.875C33.8438 31.8487 33.0362 32.6562 32.0625 32.6562Z" fill="white"/>
<path id="Vector_4" d="M27.3125 42.1562H17.8125C16.8388 42.1562 16.0312 41.3487 16.0312 40.375C16.0312 39.4013 16.8388 38.5938 17.8125 38.5938H27.3125C28.2863 38.5938 29.0938 39.4013 29.0938 40.375C29.0938 41.3487 28.2863 42.1562 27.3125 42.1562Z" fill="white"/>
</g>
</g>
</g>
<defs>
<linearGradient id="paint0_linear_84_3298" x1="28.5" y1="4.75" x2="28.5" y2="52.25" gradientUnits="userSpaceOnUse">
<stop stop-color="#FFCB2C"/>
<stop offset="1" stop-color="#E7960A"/>
</linearGradient>
<linearGradient id="paint1_linear_84_3298" x1="52.0321" y1="3.77604" x2="33.6486" y2="21.3469" gradientUnits="userSpaceOnUse">
<stop stop-color="#205EE7"/>
<stop offset="1" stop-color="#21AFFF"/>
</linearGradient>
</defs>
</svg>
