<svg width="22" height="22" viewBox="0 0 22 22" fill="none" xmlns="http://www.w3.org/2000/svg">
<path d="M18.7916 9.34075H16.1425C13.97 9.34075 12.2008 7.57159 12.2008 5.39909V2.74992C12.2008 2.24575 11.7883 1.83325 11.2841 1.83325H7.39746C4.57413 1.83325 2.29163 3.66659 2.29163 6.93909V15.0608C2.29163 18.3333 4.57413 20.1666 7.39746 20.1666H14.6025C17.4258 20.1666 19.7083 18.3333 19.7083 15.0608V10.2574C19.7083 9.75325 19.2958 9.34075 18.7916 9.34075Z" fill="#292D32"/>
<path d="M18.7916 9.34075H16.1425C13.97 9.34075 12.2008 7.57159 12.2008 5.39909V2.74992C12.2008 2.24575 11.7883 1.83325 11.2841 1.83325H7.39746C4.57413 1.83325 2.29163 3.66659 2.29163 6.93909V15.0608C2.29163 18.3333 4.57413 20.1666 7.39746 20.1666H14.6025C17.4258 20.1666 19.7083 18.3333 19.7083 15.0608V10.2574C19.7083 9.75325 19.2958 9.34075 18.7916 9.34075Z" fill="url(#paint0_linear_84_2536)"/>
<path d="M14.4833 2.02579C14.1075 1.64995 13.4567 1.90662 13.4567 2.42912V5.62829C13.4567 6.96662 14.5933 8.07579 15.9775 8.07579C16.8483 8.08495 18.0583 8.08495 19.0942 8.08495C19.6167 8.08495 19.8917 7.47079 19.525 7.10412C18.205 5.77495 15.84 3.38245 14.4833 2.02579Z" fill="#292D32"/>
<path d="M14.4833 2.02579C14.1075 1.64995 13.4567 1.90662 13.4567 2.42912V5.62829C13.4567 6.96662 14.5933 8.07579 15.9775 8.07579C16.8483 8.08495 18.0583 8.08495 19.0942 8.08495C19.6167 8.08495 19.8917 7.47079 19.525 7.10412C18.205 5.77495 15.84 3.38245 14.4833 2.02579Z" fill="url(#paint1_linear_84_2536)"/>
<defs>
<linearGradient id="paint0_linear_84_2536" x1="20.7968" y1="0.687418" x2="0.0179064" y2="19.5597" gradientUnits="userSpaceOnUse">
<stop stop-color="#205EE7"/>
<stop offset="1" stop-color="#21AFFF"/>
</linearGradient>
<linearGradient id="paint1_linear_84_2536" x1="16.5747" y1="1.84717" x2="16.5747" y2="8.08495" gradientUnits="userSpaceOnUse">
<stop stop-color="#FFCB2C"/>
<stop offset="1" stop-color="#E7960A"/>
</linearGradient>
</defs>
</svg>
