<svg width="24" height="24" viewBox="0 0 24 24" fill="none" xmlns="http://www.w3.org/2000/svg">
<g id="format_bold">
<mask id="mask0_84_3308" style="mask-type:alpha" maskUnits="userSpaceOnUse" x="0" y="0" width="24" height="24">
<rect id="Bounding box" width="24" height="24" fill="#D9D9D9"/>
</mask>
<g mask="url(#mask0_84_3308)">
<path id="format_bold_2" d="M7 18V4H12.5C13.6333 4 14.625 4.34167 15.475 5.025C16.325 5.70833 16.75 6.58333 16.75 7.65C16.75 8.28333 16.5833 8.87067 16.25 9.412C15.9167 9.954 15.4667 10.3667 14.9 10.65V10.85C15.6 11.0833 16.1667 11.4957 16.6 12.087C17.0333 12.679 17.25 13.35 17.25 14.1C17.25 15.25 16.7877 16.1877 15.863 16.913C14.9377 17.6377 13.8667 18 12.65 18H7ZM9.65 9.7H12.3C12.8 9.7 13.2417 9.54167 13.625 9.225C14.0083 8.90833 14.2 8.50833 14.2 8.025C14.2 7.54167 14.0083 7.14167 13.625 6.825C13.2417 6.50833 12.8 6.35 12.3 6.35H9.65V9.7ZM9.65 15.6H12.5C13.0667 15.6 13.5583 15.429 13.975 15.087C14.3917 14.7457 14.6 14.3083 14.6 13.775C14.6 13.2417 14.3917 12.804 13.975 12.462C13.5583 12.1207 13.0667 11.95 12.5 11.95H9.65V15.6Z" fill="#2B3249"/>
</g>
</g>
</svg>
