<svg width="24" height="24" viewBox="0 0 24 24" fill="none" xmlns="http://www.w3.org/2000/svg">
<g id="format_underlined">
<mask id="mask0_84_3311" style="mask-type:alpha" maskUnits="userSpaceOnUse" x="0" y="0" width="24" height="24">
<rect id="Bounding box" width="24" height="24" fill="#D9D9D9"/>
</mask>
<g mask="url(#mask0_84_3311)">
<path id="format_underlined_2" d="M5 21V19H19V21H5ZM12 17C10.3167 17 8.89567 16.4207 7.737 15.262C6.579 14.104 6 12.6833 6 11V3H8.5V11C8.5 11.9833 8.83733 12.8127 9.512 13.488C10.1873 14.1627 11.0167 14.5 12 14.5C12.9833 14.5 13.8127 14.1627 14.488 13.488C15.1627 12.8127 15.5 11.9833 15.5 11V3H18V11C18 12.6833 17.4207 14.104 16.262 15.262C15.104 16.4207 13.6833 17 12 17Z" fill="#2B3249"/>
</g>
</g>
</svg>
