<svg width="28" height="28" viewBox="0 0 28 28" fill="none" xmlns="http://www.w3.org/2000/svg">
<g id="manage_search">
<mask id="mask0_84_3502" style="mask-type:alpha" maskUnits="userSpaceOnUse" x="0" y="0" width="28" height="28">
<rect id="Bounding box" width="28" height="28" fill="#D9D9D9"/>
</mask>
<g mask="url(#mask0_84_3502)">
<path id="manage_search_2" d="M2.33337 22.1667V19.8333H14V22.1667H2.33337ZM2.33337 16.3333V14H8.16671V16.3333H2.33337ZM2.33337 10.5V8.16667H8.16671V10.5H2.33337ZM24.0334 22.1667L19.5417 17.675C19.075 18.0056 18.5648 18.2533 18.011 18.4182C17.4565 18.5838 16.8973 18.6667 16.3334 18.6667C14.7195 18.6667 13.344 18.0977 12.2069 16.9598C11.069 15.8227 10.5 14.4472 10.5 12.8333C10.5 11.2194 11.069 9.84356 12.2069 8.70567C13.344 7.56856 14.7195 7 16.3334 7C17.9473 7 19.3232 7.56856 20.461 8.70567C21.5982 9.84356 22.1667 11.2194 22.1667 12.8333C22.1667 13.3972 22.0843 13.9564 21.9194 14.511C21.7537 15.0648 21.5056 15.575 21.175 16.0417L25.6667 20.5333L24.0334 22.1667ZM16.3334 16.3333C17.3056 16.3333 18.132 15.9931 18.8125 15.3125C19.4931 14.6319 19.8334 13.8056 19.8334 12.8333C19.8334 11.8611 19.4931 11.0347 18.8125 10.3542C18.132 9.67361 17.3056 9.33333 16.3334 9.33333C15.3612 9.33333 14.5348 9.67361 13.8542 10.3542C13.1737 11.0347 12.8334 11.8611 12.8334 12.8333C12.8334 13.8056 13.1737 14.6319 13.8542 15.3125C14.5348 15.9931 15.3612 16.3333 16.3334 16.3333Z" fill="#C2C2C2"/>
</g>
</g>
</svg>
