<svg width="24" height="24" viewBox="0 0 24 24" fill="none" xmlns="http://www.w3.org/2000/svg">
<g id="scan_delete">
<mask id="mask0_301_1917" style="mask-type:alpha" maskUnits="userSpaceOnUse" x="0" y="0" width="24" height="24">
<rect id="Bounding box" width="24" height="24" fill="#D9D9D9"/>
</mask>
<g mask="url(#mask0_301_1917)">
<path id="scan_delete_2" d="M13 9H18L13 4V9ZM15.9 21.5L14.5 20.1L16.6 18L14.5 15.9L15.9 14.5L18 16.6L20.1 14.5L21.5 15.9L19.425 18L21.5 20.1L20.1 21.5L18 19.425L15.9 21.5ZM6 22C5.45 22 4.97917 21.8042 4.5875 21.4125C4.19583 21.0208 4 20.55 4 20V4C4 3.45 4.19583 2.97917 4.5875 2.5875C4.97917 2.19583 5.45 2 6 2H14L20 8V12.35C19.6833 12.2333 19.3542 12.1458 19.0125 12.0875C18.6708 12.0292 18.325 12 17.975 12C16.3083 12 14.8958 12.5792 13.7375 13.7375C12.5792 14.8958 12 16.3083 12 17.975C12 18.725 12.1333 19.4458 12.4 20.1375C12.6667 20.8292 13.05 21.45 13.55 22H6Z" fill="#C2C2C2"/>
</g>
</g>
</svg>
