<svg width="20" height="21" viewBox="0 0 20 21" fill="none" xmlns="http://www.w3.org/2000/svg">
<g id="Group 97">
<g id="vuesax/bulk/document-text">
<g id="document-text">
<path id="Vector" d="M18.2961 8.3247H15.3585C12.9495 8.3247 10.9878 6.36296 10.9878 3.95398V1.01645C10.9878 0.457401 10.5304 0 9.97135 0H5.66161C2.53095 0 0 2.0329 0 5.66161V14.6673C0 18.2961 2.53095 20.3289 5.66161 20.3289H13.6509C16.7815 20.3289 19.3125 18.2961 19.3125 14.6673V9.34115C19.3125 8.78211 18.8551 8.3247 18.2961 8.3247Z" fill="#FF5C5C"/>
<path id="Vector_2" d="M13.5188 0.213686C13.102 -0.203057 12.3804 0.0815481 12.3804 0.660923V4.20832C12.3804 5.69234 13.6408 6.92224 15.1756 6.92224C16.1412 6.9324 17.4829 6.9324 18.6315 6.9324C19.2109 6.9324 19.5158 6.25138 19.1093 5.8448C17.6456 4.37096 15.0231 1.71803 13.5188 0.213686Z" fill="#FF5C5C"/>
</g>
</g>
<g id="PDF">
<path d="M6.25317 11.2485C6.58928 11.2485 6.88021 11.3046 7.12596 11.4166C7.37533 11.5286 7.56688 11.6876 7.7006 11.8936C7.83432 12.0996 7.90118 12.3436 7.90118 12.6255C7.90118 12.9038 7.83432 13.1477 7.7006 13.3573C7.56688 13.5633 7.37533 13.7223 7.12596 13.8344C6.88021 13.9428 6.58928 13.997 6.25317 13.997H5.48881V15.0433H4.6106V11.2485H6.25317ZM6.20439 13.2814C6.46821 13.2814 6.66879 13.2254 6.80612 13.1134C6.94346 12.9977 7.01212 12.8351 7.01212 12.6255C7.01212 12.4123 6.94346 12.2496 6.80612 12.1376C6.66879 12.0219 6.46821 11.9641 6.20439 11.9641H5.48881V13.2814H6.20439Z" fill="white"/>
<path d="M8.36552 11.2485H10.0894C10.5014 11.2485 10.8646 11.328 11.179 11.4871C11.4971 11.6425 11.7428 11.8629 11.9163 12.1484C12.0934 12.4339 12.1819 12.7664 12.1819 13.1459C12.1819 13.5254 12.0934 13.8579 11.9163 14.1434C11.7428 14.4289 11.4971 14.6511 11.179 14.8102C10.8646 14.9656 10.5014 15.0433 10.0894 15.0433H8.36552V11.2485ZM10.046 14.3223C10.4255 14.3223 10.7273 14.2175 10.9514 14.0079C11.179 13.7946 11.2929 13.5073 11.2929 13.1459C11.2929 12.7845 11.179 12.499 10.9514 12.2894C10.7273 12.0761 10.4255 11.9695 10.046 11.9695H9.24373V14.3223H10.046Z" fill="white"/>
<path d="M13.5598 11.9533V12.9562H15.3162V13.6609H13.5598V15.0433H12.6816V11.2485H15.5493V11.9533H13.5598Z" fill="white"/>
</g>
</g>
</svg>
