<svg width="25" height="26" viewBox="0 0 25 26" fill="none" xmlns="http://www.w3.org/2000/svg">
<path d="M2.08337 13.9166V12.0832C2.08337 10.9999 2.96879 10.1041 4.06254 10.1041C5.94796 10.1041 6.71879 8.77075 5.77087 7.13533C5.22921 6.19783 5.55212 4.97908 6.50004 4.43741L8.30212 3.40616C9.12504 2.91658 10.1875 3.20825 10.6771 4.03116L10.7917 4.22908C11.7292 5.8645 13.2709 5.8645 14.2188 4.22908L14.3334 4.03116C14.823 3.20825 15.8855 2.91658 16.7084 3.40616L18.5105 4.43741C19.4584 4.97908 19.7813 6.19783 19.2396 7.13533C18.2917 8.77075 19.0625 10.1041 20.948 10.1041C22.0313 10.1041 22.9271 10.9895 22.9271 12.0832V13.9166C22.9271 14.9999 22.0417 15.8957 20.948 15.8957C19.0625 15.8957 18.2917 17.2291 19.2396 18.8645C19.7813 19.8124 19.4584 21.0207 18.5105 21.5624L16.7084 22.5937C15.8855 23.0832 14.823 22.7916 14.3334 21.9687L14.2188 21.7707C13.2813 20.1353 11.7396 20.1353 10.7917 21.7707L10.6771 21.9687C10.1875 22.7916 9.12504 23.0832 8.30212 22.5937L6.50004 21.5624C5.55212 21.0207 5.22921 19.802 5.77087 18.8645C6.71879 17.2291 5.94796 15.8957 4.06254 15.8957C2.96879 15.8957 2.08337 14.9999 2.08337 13.9166Z" fill="#292D32"/>
<path d="M2.08337 13.9166V12.0832C2.08337 10.9999 2.96879 10.1041 4.06254 10.1041C5.94796 10.1041 6.71879 8.77075 5.77087 7.13533C5.22921 6.19783 5.55212 4.97908 6.50004 4.43741L8.30212 3.40616C9.12504 2.91658 10.1875 3.20825 10.6771 4.03116L10.7917 4.22908C11.7292 5.8645 13.2709 5.8645 14.2188 4.22908L14.3334 4.03116C14.823 3.20825 15.8855 2.91658 16.7084 3.40616L18.5105 4.43741C19.4584 4.97908 19.7813 6.19783 19.2396 7.13533C18.2917 8.77075 19.0625 10.1041 20.948 10.1041C22.0313 10.1041 22.9271 10.9895 22.9271 12.0832V13.9166C22.9271 14.9999 22.0417 15.8957 20.948 15.8957C19.0625 15.8957 18.2917 17.2291 19.2396 18.8645C19.7813 19.8124 19.4584 21.0207 18.5105 21.5624L16.7084 22.5937C15.8855 23.0832 14.823 22.7916 14.3334 21.9687L14.2188 21.7707C13.2813 20.1353 11.7396 20.1353 10.7917 21.7707L10.6771 21.9687C10.1875 22.7916 9.12504 23.0832 8.30212 22.5937L6.50004 21.5624C5.55212 21.0207 5.22921 19.802 5.77087 18.8645C6.71879 17.2291 5.94796 15.8957 4.06254 15.8957C2.96879 15.8957 2.08337 14.9999 2.08337 13.9166Z" fill="url(#paint0_linear_84_2539)"/>
<path d="M12.5 16.3853C14.3698 16.3853 15.8855 14.8696 15.8855 12.9999C15.8855 11.1302 14.3698 9.6145 12.5 9.6145C10.6303 9.6145 9.11462 11.1302 9.11462 12.9999C9.11462 14.8696 10.6303 16.3853 12.5 16.3853Z" fill="#D9E0F2"/>
<defs>
<linearGradient id="paint0_linear_84_2539" x1="24.2299" y1="1.9387" x2="1.84101" y2="24.6272" gradientUnits="userSpaceOnUse">
<stop stop-color="#205EE7"/>
<stop offset="1" stop-color="#21AFFF"/>
</linearGradient>
</defs>
</svg>
