<svg width="42" height="42" viewBox="0 0 42 42" fill="none" xmlns="http://www.w3.org/2000/svg">
<g id="Group 115">
<rect id="Rectangle 40" opacity="0.2" width="42" height="42" rx="14" fill="#2B3249"/>
<g id="share">
<mask id="mask0_84_3303" style="mask-type:alpha" maskUnits="userSpaceOnUse" x="11" y="11" width="21" height="21">
<rect id="Bounding box" x="11" y="11" width="21" height="21" fill="#D9D9D9"/>
</mask>
<g mask="url(#mask0_84_3303)">
<path id="share_2" d="M26.75 30.25C26.0208 30.25 25.401 29.9948 24.8906 29.4844C24.3802 28.974 24.125 28.3542 24.125 27.625C24.125 27.5229 24.1323 27.417 24.1469 27.3074C24.1615 27.1983 24.1833 27.1 24.2125 27.0125L18.0438 23.425C17.7958 23.6438 17.5187 23.815 17.2125 23.9386C16.9062 24.0629 16.5854 24.125 16.25 24.125C15.5208 24.125 14.901 23.8698 14.3906 23.3594C13.8802 22.849 13.625 22.2292 13.625 21.5C13.625 20.7708 13.8802 20.151 14.3906 19.6406C14.901 19.1302 15.5208 18.875 16.25 18.875C16.5854 18.875 16.9062 18.9368 17.2125 19.0605C17.5187 19.1848 17.7958 19.3563 18.0438 19.575L24.2125 15.9875C24.1833 15.9 24.1615 15.8017 24.1469 15.6926C24.1323 15.583 24.125 15.4771 24.125 15.375C24.125 14.6458 24.3802 14.026 24.8906 13.5156C25.401 13.0052 26.0208 12.75 26.75 12.75C27.4792 12.75 28.099 13.0052 28.6094 13.5156C29.1198 14.026 29.375 14.6458 29.375 15.375C29.375 16.1042 29.1198 16.724 28.6094 17.2344C28.099 17.7448 27.4792 18 26.75 18C26.4146 18 26.0938 17.9379 25.7875 17.8136C25.4812 17.69 25.2042 17.5187 24.9563 17.3L18.7875 20.8875C18.8167 20.975 18.8385 21.0733 18.8531 21.1824C18.8677 21.292 18.875 21.3979 18.875 21.5C18.875 21.6021 18.8677 21.7077 18.8531 21.8168C18.8385 21.9264 18.8167 22.025 18.7875 22.1125L24.9563 25.7C25.2042 25.4812 25.4812 25.3097 25.7875 25.1855C26.0938 25.0618 26.4146 25 26.75 25C27.4792 25 28.099 25.2552 28.6094 25.7656C29.1198 26.276 29.375 26.8958 29.375 27.625C29.375 28.3542 29.1198 28.974 28.6094 29.4844C28.099 29.9948 27.4792 30.25 26.75 30.25Z" fill="#2B3249"/>
</g>
</g>
</g>
</svg>
